<svg width="80" height="52" viewBox="0 0 80 52" fill="none" xmlns="http://www.w3.org/2000/svg">
<rect width="79.316" height="51.6372" rx="3.63805" fill="white"/>
<path d="M39.7908 8.15494C39.9848 8.16365 40.1863 8.2264 40.3237 8.37166C40.4587 8.51692 40.543 8.69471 40.543 8.89633V21.6574C40.543 21.8474 40.4587 22.0473 40.3231 22.1827C40.1922 22.3117 39.9783 22.4081 39.7902 22.3994C39.5963 22.3907 39.3947 22.3279 39.2574 22.1827C39.1236 22.0374 39.0375 21.8579 39.0375 21.6574V8.89633C39.0375 8.70633 39.1218 8.50646 39.2574 8.37108C39.3882 8.24209 39.6022 8.14564 39.7902 8.15436L39.7908 8.15494Z" fill="#3F3F3F"/>
<path d="M15.8615 32.6896H16.7596V35.734H15.8615V32.6896ZM12.2106 33.4828H20.5388V34.2293H12.2106V33.4828ZM11.0558 35.2791H21.6469V36.0489H11.0558V35.2791ZM11.4291 37.0753H21.3319V37.8452H11.4291V37.0753ZM18.2526 35.8973H19.1391V39.7114C19.1391 39.968 19.1041 40.1624 19.0341 40.2946C18.9641 40.4268 18.828 40.5318 18.6258 40.6096C18.4314 40.6718 18.1671 40.7068 17.8327 40.7145C17.5061 40.7301 17.1017 40.7379 16.6196 40.7379C16.5963 40.6135 16.5496 40.4735 16.4797 40.318C16.4174 40.1624 16.3552 40.0264 16.293 39.9097C16.5574 39.9175 16.8024 39.9214 17.0279 39.9214C17.2611 39.9292 17.4594 39.933 17.6227 39.933C17.7938 39.933 17.9143 39.9292 17.9843 39.9214C18.0932 39.9136 18.1632 39.8942 18.1943 39.8631C18.2332 39.8397 18.2526 39.7853 18.2526 39.6998V35.8973ZM12.3972 30.9983H16.188V31.7448H12.3972V30.9983ZM16.8996 30.9983H21.5186V31.7448H16.8996V30.9983ZM12.6655 29.9602L13.4936 30.1818C13.2681 30.7573 12.9882 31.3133 12.6538 31.8498C12.3195 32.3786 11.9734 32.8257 11.6157 33.1912C11.5613 33.1445 11.4874 33.0901 11.3941 33.0279C11.3086 32.9657 11.2191 32.9035 11.1258 32.8413C11.0325 32.7791 10.9509 32.7324 10.8809 32.7013C11.2464 32.3591 11.5846 31.947 11.8957 31.4649C12.2145 30.975 12.4711 30.4734 12.6655 29.9602ZM17.2378 29.9602L18.0776 30.1585C17.8832 30.7184 17.6227 31.2472 17.2961 31.7448C16.9773 32.2425 16.6352 32.6624 16.2697 33.0046C16.2153 32.9501 16.1414 32.8918 16.0481 32.8296C15.9625 32.7674 15.8731 32.7052 15.7798 32.643C15.6943 32.5808 15.6165 32.5302 15.5465 32.4913C15.9042 32.1881 16.2347 31.8148 16.538 31.3716C16.8412 30.9206 17.0745 30.4501 17.2378 29.9602ZM13.0971 31.5582L13.8436 31.3133C13.968 31.5388 14.0924 31.7915 14.2168 32.0714C14.3412 32.3514 14.4268 32.5885 14.4734 32.7829L13.6919 33.0745C13.653 32.8724 13.5753 32.6313 13.4586 32.3514C13.3498 32.0637 13.2293 31.7993 13.0971 31.5582ZM17.9493 31.5699L18.6725 31.2783C18.8669 31.5038 19.0574 31.7604 19.244 32.0481C19.4384 32.3358 19.5823 32.5885 19.6756 32.8063L18.9175 33.1329C18.8397 32.9151 18.7075 32.6624 18.5209 32.3747C18.342 32.0792 18.1515 31.8109 17.9493 31.5699ZM13.0971 38.3467L13.7386 37.8452C13.9952 38.0007 14.2518 38.1795 14.5084 38.3817C14.765 38.5839 15.0022 38.79 15.2199 38.9999C15.4454 39.2099 15.6243 39.4082 15.7565 39.5948L15.08 40.1547C14.9555 39.968 14.7845 39.7659 14.5667 39.5481C14.3568 39.3304 14.1235 39.1204 13.8669 38.9183C13.6103 38.7083 13.3537 38.5178 13.0971 38.3467ZM26.2192 37.1687H29.7534V37.8452H26.2192V37.1687ZM26.1725 35.4074H30.15V39.6648H26.1725V38.9766H29.3335V36.0956H26.1725V35.4074ZM25.7993 35.4074H26.5924V40.2596H25.7993V35.4074ZM23.6414 32.1764H26.884V32.8179H23.6414V32.1764ZM29.0186 32.1764H32.3312V32.8179H29.0186V32.1764ZM31.9579 30.5201H32.8444V39.5948C32.8444 39.867 32.8055 40.0808 32.7278 40.2363C32.6578 40.3918 32.5256 40.5085 32.3312 40.5862C32.1446 40.664 31.8879 40.7107 31.5614 40.7262C31.2425 40.7418 30.8421 40.7495 30.3599 40.7495C30.3444 40.664 30.3211 40.5668 30.29 40.4579C30.2589 40.3491 30.22 40.2402 30.1733 40.1313C30.1344 40.0225 30.0956 39.9292 30.0567 39.8514C30.29 39.8592 30.5155 39.8631 30.7332 39.8631C30.9587 39.8631 31.157 39.8631 31.3281 39.8631C31.4991 39.8631 31.6197 39.8631 31.6897 39.8631C31.7907 39.8553 31.8607 39.832 31.8996 39.7931C31.9385 39.7542 31.9579 39.6842 31.9579 39.5831V30.5201ZM23.7114 30.5201H27.4439V34.5209H23.7114V33.856H26.6274V31.1966H23.7114V30.5201ZM32.4012 30.5201V31.1966H29.3335V33.8677H32.4012V34.5442H28.5054V30.5201H32.4012ZM23.2098 30.5201H24.0847V40.7612H23.2098V30.5201ZM41.0793 38.1718H41.8024V40.5163H41.0793V38.1718ZM39.8079 32.6663V33.8794H43.1671V32.6663H39.8079ZM38.9797 32.0364H44.0536V34.5092H38.9797V32.0364ZM38.3149 30.6484H44.7651V31.3832H38.3149V30.6484ZM39.7496 38.0085H43.2255V38.6383H39.7496V38.0085ZM38.2332 35.1974H44.3336V35.8973H39.0264V40.7495H38.2332V35.1974ZM43.902 35.1974H44.7068V39.8514C44.7068 40.0458 44.6835 40.2013 44.6368 40.318C44.5902 40.4346 44.4969 40.5279 44.3569 40.5979C44.2169 40.6601 44.0381 40.6951 43.8203 40.7029C43.6026 40.7184 43.3304 40.7262 43.0039 40.7262C42.9883 40.6251 42.9533 40.5046 42.8989 40.3646C42.8522 40.2247 42.8017 40.1002 42.7472 39.9914C42.9727 39.9991 43.1749 40.003 43.3538 40.003C43.5404 40.003 43.6648 40.003 43.727 40.003C43.8437 40.003 43.902 39.9486 43.902 39.8397V35.1974ZM41.8491 35.4307H42.4323V36.6788C42.4323 36.7721 42.4479 36.8304 42.479 36.8537C42.5178 36.877 42.6034 36.8887 42.7356 36.8887C42.7745 36.8887 42.8561 36.8887 42.9805 36.8887C43.1049 36.8887 43.2332 36.8887 43.3654 36.8887C43.4976 36.8887 43.5871 36.8887 43.6337 36.8887C43.727 36.8887 43.7892 36.8848 43.8203 36.877C43.8514 36.8693 43.8709 36.8576 43.8787 36.8421C43.9331 36.8887 44.0109 36.9315 44.1119 36.9704C44.213 37.0015 44.3102 37.0287 44.4035 37.052C44.3724 37.192 44.3063 37.2931 44.2053 37.3553C44.1042 37.4097 43.9486 37.4369 43.7387 37.4369C43.7076 37.4369 43.6415 37.4369 43.5404 37.4369C43.4393 37.4369 43.3266 37.4369 43.2021 37.4369C43.0855 37.4369 42.9766 37.4369 42.8755 37.4369C42.7745 37.4369 42.7084 37.4369 42.6773 37.4369C42.3507 37.4369 42.129 37.3864 42.0124 37.2853C41.9035 37.1842 41.8491 36.982 41.8491 36.6788V35.4307ZM40.4494 35.5123H41.0559C41.0326 35.9089 40.9665 36.255 40.8577 36.5505C40.7566 36.8382 40.5933 37.0831 40.3678 37.2853C40.1423 37.4797 39.8273 37.643 39.423 37.7752C39.3919 37.6974 39.3413 37.6119 39.2713 37.5186C39.2013 37.4253 39.1353 37.3553 39.073 37.3086C39.4152 37.2075 39.6796 37.0831 39.8662 36.9354C40.0606 36.7798 40.2006 36.5854 40.2861 36.3522C40.3716 36.1189 40.4261 35.8389 40.4494 35.5123ZM34.7573 30.5201H37.3118V31.3133H35.5272V40.7495H34.7573V30.5201ZM37.1018 30.5201H37.2534L37.3817 30.4851L37.9416 30.8234C37.8405 31.1422 37.7278 31.4805 37.6034 31.8382C37.4867 32.1959 37.3623 32.5535 37.2301 32.9112C37.1057 33.2689 36.9813 33.6072 36.8569 33.926C37.2534 34.4081 37.5139 34.8592 37.6384 35.2791C37.7706 35.699 37.8366 36.0917 37.8366 36.4571C37.8444 36.7604 37.8094 37.0326 37.7317 37.2736C37.6617 37.5069 37.5489 37.6819 37.3934 37.7985C37.2457 37.8996 37.0513 37.9657 36.8102 37.9968C36.7091 38.0046 36.5925 38.0124 36.4603 38.0201C36.3359 38.0279 36.2114 38.0279 36.087 38.0201C36.087 37.9113 36.0676 37.783 36.0287 37.6352C35.9976 37.4875 35.9509 37.3592 35.8887 37.2503C36.0054 37.2581 36.1142 37.2659 36.2153 37.2736C36.3242 37.2736 36.4175 37.2697 36.4953 37.262C36.643 37.262 36.7597 37.2309 36.8452 37.1687C36.923 37.0987 36.9774 36.9898 37.0085 36.8421C37.0474 36.6943 37.0668 36.5349 37.0668 36.3638C37.059 36.045 36.9891 35.6912 36.8569 35.3024C36.7324 34.9058 36.4758 34.4781 36.087 34.0193C36.1803 33.755 36.2737 33.475 36.367 33.1795C36.4681 32.8763 36.5614 32.5808 36.6469 32.2931C36.7402 31.9976 36.8258 31.7176 36.9035 31.4532C36.9813 31.1888 37.0474 30.9595 37.1018 30.7651V30.5201ZM53.1866 30.6834C53.1633 30.8389 53.1439 31.0022 53.1283 31.1733C53.1205 31.3366 53.1166 31.4999 53.1166 31.6632C53.1244 31.8731 53.1283 32.157 53.1283 32.5147C53.1361 32.8646 53.1439 33.2612 53.1516 33.7044C53.1594 34.1476 53.1672 34.6142 53.175 35.1041C53.1827 35.594 53.1905 36.0839 53.1983 36.5738C53.2061 37.0637 53.2138 37.5341 53.2216 37.9851C53.2294 38.4362 53.2333 38.8444 53.2333 39.2099C53.2333 39.5131 53.1439 39.7425 52.965 39.8981C52.7862 40.0614 52.5218 40.143 52.1718 40.143C51.8764 40.143 51.5614 40.1352 51.2271 40.1197C50.9005 40.1119 50.5933 40.0963 50.3056 40.073L50.2239 39.1166C50.5039 39.1632 50.7916 39.1982 51.0871 39.2215C51.3904 39.2449 51.6508 39.2565 51.8686 39.2565C52.0319 39.2565 52.1446 39.2176 52.2068 39.1399C52.269 39.0621 52.3002 38.9455 52.3002 38.79C52.3002 38.51 52.3002 38.1718 52.3002 37.7752C52.3002 37.3786 52.2963 36.9509 52.2885 36.4921C52.2885 36.0256 52.2846 35.5551 52.2768 35.0808C52.269 34.6064 52.2613 34.1515 52.2535 33.7161C52.2457 33.2728 52.2379 32.8724 52.2302 32.5147C52.2302 32.157 52.2224 31.8731 52.2068 31.6632C52.1913 31.4377 52.1757 31.2511 52.1602 31.1033C52.1446 30.9478 52.1252 30.8078 52.1019 30.6834H53.1866ZM46.923 32.7246C47.0941 32.7402 47.269 32.7557 47.4479 32.7713C47.6345 32.7868 47.8172 32.7946 47.9961 32.7946C48.0816 32.7946 48.2605 32.7946 48.5326 32.7946C48.8048 32.7946 49.1392 32.7946 49.5358 32.7946C49.9323 32.7946 50.3561 32.7946 50.8071 32.7946C51.2582 32.7946 51.7092 32.7946 52.1602 32.7946C52.619 32.7946 53.0428 32.7946 53.4316 32.7946C53.8282 32.7946 54.1625 32.7946 54.4347 32.7946C54.7068 32.7946 54.8857 32.7946 54.9712 32.7946C55.1268 32.7946 55.3017 32.7868 55.4961 32.7713C55.6983 32.748 55.8538 32.7324 55.9627 32.7246V33.7044C55.8305 33.6966 55.6711 33.6927 55.4845 33.6927C55.3056 33.685 55.1462 33.6811 55.0062 33.6811C54.9285 33.6811 54.7535 33.6811 54.4813 33.6811C54.217 33.6811 53.8826 33.6811 53.4782 33.6811C53.0816 33.6811 52.654 33.6811 52.1952 33.6811C51.7442 33.6811 51.2854 33.6811 50.8188 33.6811C50.36 33.6811 49.9323 33.6811 49.5358 33.6811C49.1392 33.6811 48.8048 33.6811 48.5326 33.6811C48.2605 33.6811 48.0894 33.6811 48.0194 33.6811C47.825 33.6811 47.6384 33.685 47.4595 33.6927C47.2807 33.6927 47.1018 33.7005 46.923 33.7161V32.7246ZM46.4914 38.1718C47.1135 37.8763 47.7045 37.5341 48.2644 37.1453C48.832 36.7487 49.3569 36.3405 49.839 35.9206C50.3211 35.4929 50.7449 35.073 51.1104 34.6609C51.4759 34.241 51.7636 33.856 51.9736 33.5061L52.4401 33.4945L52.4518 34.2876C52.2341 34.6298 51.9425 35.0108 51.577 35.4307C51.2115 35.8428 50.7916 36.2627 50.3173 36.6904C49.8507 37.1103 49.3452 37.5147 48.8009 37.9035C48.2644 38.2923 47.72 38.6344 47.1679 38.9299L46.4914 38.1718ZM67.1952 32.0598C67.1563 32.1453 67.1214 32.2347 67.0903 32.328C67.0669 32.4214 67.0436 32.5263 67.0203 32.643C66.9581 32.954 66.8764 33.2962 66.7753 33.6694C66.6742 34.0349 66.5498 34.4159 66.4021 34.8125C66.2621 35.2013 66.0949 35.5823 65.9005 35.9556C65.7139 36.3211 65.5078 36.6515 65.2823 36.947C64.9246 37.398 64.528 37.8218 64.0926 38.2184C63.6571 38.6072 63.1594 38.9571 62.5996 39.2682C62.0397 39.5792 61.4021 39.8475 60.6867 40.073L59.8935 39.1982C60.6555 39.0038 61.3126 38.7705 61.8647 38.4984C62.4246 38.2184 62.9145 37.8996 63.3344 37.5419C63.7543 37.1842 64.1237 36.7993 64.4425 36.3872C64.7224 36.0372 64.9635 35.6368 65.1657 35.1858C65.3756 34.7347 65.5467 34.2837 65.6789 33.8327C65.8189 33.3739 65.9161 32.9579 65.9705 32.5847C65.8616 32.5847 65.6556 32.5847 65.3523 32.5847C65.049 32.5847 64.6913 32.5847 64.2792 32.5847C63.8671 32.5847 63.4355 32.5847 62.9845 32.5847C62.5412 32.5847 62.1136 32.5847 61.7014 32.5847C61.2893 32.5847 60.9316 32.5847 60.6283 32.5847C60.3251 32.5847 60.119 32.5847 60.0101 32.5847C59.7768 32.5847 59.563 32.5885 59.3686 32.5963C59.1742 32.6041 58.9992 32.6119 58.8437 32.6196V31.5932C58.9526 31.601 59.0731 31.6126 59.2053 31.6282C59.3375 31.6437 59.4736 31.6554 59.6136 31.6632C59.7535 31.6632 59.8857 31.6632 60.0101 31.6632C60.1034 31.6632 60.2706 31.6632 60.5117 31.6632C60.7527 31.6632 61.0366 31.6632 61.3632 31.6632C61.6975 31.6632 62.0514 31.6632 62.4246 31.6632C62.8056 31.6632 63.1789 31.6632 63.5444 31.6632C63.9176 31.6632 64.2636 31.6632 64.5825 31.6632C64.9091 31.6632 65.1851 31.6632 65.4106 31.6632C65.6361 31.6632 65.7878 31.6632 65.8655 31.6632C65.9511 31.6632 66.0483 31.6632 66.1571 31.6632C66.266 31.6554 66.3749 31.636 66.4837 31.6049L67.1952 32.0598Z" fill="#161616"/>
</svg>
