<svg width="80" height="52" viewBox="0 0 80 52" fill="none" xmlns="http://www.w3.org/2000/svg">
<rect width="80" height="51.8182" rx="3.63805" fill="white"/>
<path d="M34.5851 8.17497C34.7807 8.18376 34.9841 8.24705 35.1226 8.39356C35.2587 8.54007 35.3438 8.71939 35.3438 8.92275V21.7939C35.3438 21.9855 35.2587 22.1871 35.122 22.3237C34.99 22.4538 34.7742 22.551 34.5845 22.5423C34.3889 22.5335 34.1856 22.4702 34.0471 22.3237C33.9121 22.1772 33.8253 21.9961 33.8253 21.7939V8.92275C33.8253 8.73112 33.9103 8.52952 34.0471 8.39297C34.1791 8.26287 34.3949 8.16559 34.5845 8.17438L34.5851 8.17497Z" fill="#3F3F3F"/>
<path d="M40.132 8.17497C40.3276 8.18376 40.5309 8.24705 40.6695 8.39356C40.8056 8.54007 40.8906 8.71939 40.8906 8.92275V21.7939C40.8906 21.9855 40.8056 22.1871 40.6689 22.3237C40.5369 22.4538 40.3211 22.551 40.1314 22.5423C39.9358 22.5335 39.7325 22.4702 39.5939 22.3237C39.459 22.1772 39.3722 21.9961 39.3722 21.7939V8.92275C39.3722 8.73112 39.4572 8.52952 39.5939 8.39297C39.7259 8.26287 39.9417 8.16559 40.1314 8.17438L40.132 8.17497Z" fill="#A2A2A2"/>
<path d="M45.4328 8.17497C45.6284 8.18376 45.8317 8.24705 45.9702 8.39356C46.1064 8.54007 46.1914 8.71939 46.1914 8.92275V21.7939C46.1914 21.9855 46.1064 22.1871 45.9696 22.3237C45.8377 22.4538 45.6218 22.551 45.4322 22.5423C45.2366 22.5335 45.0332 22.4702 44.8947 22.3237C44.7598 22.1772 44.673 21.9961 44.673 21.7939V8.92275C44.673 8.73112 44.758 8.52952 44.8947 8.39297C45.0267 8.26287 45.2425 8.16559 45.4322 8.17438L45.4328 8.17497Z" fill="#3F3F3F"/>
<path d="M16 32.8091H16.9059V35.8797H16V32.8091ZM12.3176 33.6091H20.7176V34.362H12.3176V33.6091ZM11.1529 35.4208H21.8353V36.1973H11.1529V35.4208ZM11.5294 37.2326H21.5176V38.0091H11.5294V37.2326ZM18.4118 36.0444H19.3059V39.8914C19.3059 40.1503 19.2706 40.3463 19.2 40.4797C19.1294 40.613 18.9922 40.7189 18.7882 40.7973C18.5922 40.8601 18.3255 40.8954 17.9882 40.9032C17.6588 40.9189 17.251 40.9267 16.7647 40.9267C16.7412 40.8012 16.6941 40.6601 16.6235 40.5032C16.5608 40.3463 16.498 40.2091 16.4353 40.0914C16.702 40.0993 16.949 40.1032 17.1765 40.1032C17.4118 40.111 17.6118 40.115 17.7765 40.115C17.949 40.115 18.0706 40.111 18.1412 40.1032C18.251 40.0954 18.3216 40.0757 18.3529 40.0444C18.3922 40.0208 18.4118 39.9659 18.4118 39.8797V36.0444ZM12.5059 31.1032H16.3294V31.8561H12.5059V31.1032ZM17.0471 31.1032H21.7059V31.8561H17.0471V31.1032ZM12.7765 30.0561L13.6118 30.2797C13.3843 30.8601 13.102 31.4208 12.7647 31.962C12.4275 32.4954 12.0784 32.9463 11.7176 33.315C11.6627 33.2679 11.5882 33.213 11.4941 33.1503C11.4078 33.0875 11.3176 33.0248 11.2235 32.962C11.1294 32.8993 11.0471 32.8522 10.9765 32.8208C11.3451 32.4757 11.6863 32.0601 12 31.5738C12.3216 31.0797 12.5804 30.5738 12.7765 30.0561ZM17.3882 30.0561L18.2353 30.2561C18.0392 30.8208 17.7765 31.3542 17.4471 31.8561C17.1255 32.3581 16.7804 32.7816 16.4118 33.1267C16.3569 33.0718 16.2824 33.013 16.1882 32.9503C16.102 32.8875 16.0118 32.8248 15.9176 32.762C15.8314 32.6993 15.7529 32.6483 15.6824 32.6091C16.0431 32.3032 16.3765 31.9267 16.6824 31.4797C16.9882 31.0248 17.2235 30.5503 17.3882 30.0561ZM13.2118 31.6679L13.9647 31.4208C14.0902 31.6483 14.2157 31.9032 14.3412 32.1855C14.4667 32.4679 14.5529 32.7071 14.6 32.9032L13.8118 33.1973C13.7725 32.9934 13.6941 32.7503 13.5765 32.4679C13.4667 32.1777 13.3451 31.911 13.2118 31.6679ZM18.1059 31.6797L18.8353 31.3855C19.0314 31.613 19.2235 31.8718 19.4118 32.162C19.6078 32.4522 19.7529 32.7071 19.8471 32.9267L19.0824 33.2561C19.0039 33.0365 18.8706 32.7816 18.6824 32.4914C18.502 32.1934 18.3098 31.9228 18.1059 31.6797ZM13.2118 38.515L13.8588 38.0091C14.1176 38.1659 14.3765 38.3463 14.6353 38.5503C14.8941 38.7542 15.1333 38.962 15.3529 39.1738C15.5804 39.3855 15.7608 39.5855 15.8941 39.7738L15.2118 40.3385C15.0863 40.1503 14.9137 39.9463 14.6941 39.7267C14.4824 39.5071 14.2471 39.2954 13.9882 39.0914C13.7294 38.8797 13.4706 38.6875 13.2118 38.515ZM26.4471 37.3267H30.0118V38.0091H26.4471V37.3267ZM26.4 35.5503H30.4118V39.8444H26.4V39.1503H29.5882V36.2444H26.4V35.5503ZM26.0235 35.5503H26.8235V40.4444H26.0235V35.5503ZM23.8471 32.2914H27.1176V32.9385H23.8471V32.2914ZM29.2706 32.2914H32.6118V32.9385H29.2706V32.2914ZM32.2353 30.6208H33.1294V39.7738C33.1294 40.0483 33.0902 40.264 33.0118 40.4208C32.9412 40.5777 32.8078 40.6954 32.6118 40.7738C32.4235 40.8522 32.1647 40.8993 31.8353 40.915C31.5137 40.9306 31.1098 40.9385 30.6235 40.9385C30.6078 40.8522 30.5843 40.7542 30.5529 40.6444C30.5216 40.5346 30.4824 40.4248 30.4353 40.315C30.3961 40.2052 30.3569 40.111 30.3176 40.0326C30.5529 40.0405 30.7804 40.0444 31 40.0444C31.2275 40.0444 31.4275 40.0444 31.6 40.0444C31.7725 40.0444 31.8941 40.0444 31.9647 40.0444C32.0667 40.0365 32.1373 40.013 32.1765 39.9738C32.2157 39.9346 32.2353 39.864 32.2353 39.762V30.6208ZM23.9176 30.6208H27.6824V34.6561H23.9176V33.9855H26.8588V31.3032H23.9176V30.6208ZM32.6824 30.6208V31.3032H29.5882V33.9973H32.6824V34.6797H28.7529V30.6208H32.6824ZM23.4118 30.6208H24.2941V40.9503H23.4118V30.6208ZM41.4353 38.3385H42.1647V40.7032H41.4353V38.3385ZM40.1529 32.7855V34.0091H43.5412V32.7855H40.1529ZM39.3176 32.1503H44.4353V34.6444H39.3176V32.1503ZM38.6471 30.7503H45.1529V31.4914H38.6471V30.7503ZM40.0941 38.1738H43.6V38.8091H40.0941V38.1738ZM38.5647 35.3385H44.7176V36.0444H39.3647V40.9385H38.5647V35.3385ZM44.2824 35.3385H45.0941V40.0326C45.0941 40.2287 45.0706 40.3855 45.0235 40.5032C44.9765 40.6208 44.8824 40.715 44.7412 40.7855C44.6 40.8483 44.4196 40.8836 44.2 40.8914C43.9804 40.9071 43.7059 40.915 43.3765 40.915C43.3608 40.813 43.3255 40.6914 43.2706 40.5503C43.2235 40.4091 43.1725 40.2836 43.1176 40.1738C43.3451 40.1816 43.549 40.1855 43.7294 40.1855C43.9176 40.1855 44.0431 40.1855 44.1059 40.1855C44.2235 40.1855 44.2824 40.1306 44.2824 40.0208V35.3385ZM42.2118 35.5738H42.8V36.8326C42.8 36.9267 42.8157 36.9855 42.8471 37.0091C42.8863 37.0326 42.9725 37.0444 43.1059 37.0444C43.1451 37.0444 43.2275 37.0444 43.3529 37.0444C43.4784 37.0444 43.6078 37.0444 43.7412 37.0444C43.8745 37.0444 43.9647 37.0444 44.0118 37.0444C44.1059 37.0444 44.1686 37.0405 44.2 37.0326C44.2314 37.0248 44.251 37.013 44.2588 36.9973C44.3137 37.0444 44.3922 37.0875 44.4941 37.1267C44.5961 37.1581 44.6941 37.1855 44.7882 37.2091C44.7569 37.3503 44.6902 37.4522 44.5882 37.515C44.4863 37.5699 44.3294 37.5973 44.1176 37.5973C44.0863 37.5973 44.0196 37.5973 43.9176 37.5973C43.8157 37.5973 43.702 37.5973 43.5765 37.5973C43.4588 37.5973 43.349 37.5973 43.2471 37.5973C43.1451 37.5973 43.0784 37.5973 43.0471 37.5973C42.7176 37.5973 42.4941 37.5463 42.3765 37.4444C42.2667 37.3424 42.2118 37.1385 42.2118 36.8326V35.5738ZM40.8 35.6561H41.4118C41.3882 36.0561 41.3216 36.4052 41.2118 36.7032C41.1098 36.9934 40.9451 37.2405 40.7176 37.4444C40.4902 37.6405 40.1725 37.8052 39.7647 37.9385C39.7333 37.8601 39.6824 37.7738 39.6118 37.6797C39.5412 37.5855 39.4745 37.515 39.4118 37.4679C39.7569 37.3659 40.0235 37.2405 40.2118 37.0914C40.4078 36.9346 40.549 36.7385 40.6353 36.5032C40.7216 36.2679 40.7765 35.9855 40.8 35.6561ZM35.0588 30.6208H37.6353V31.4208H35.8353V40.9385H35.0588V30.6208ZM37.4235 30.6208H37.5765L37.7059 30.5855L38.2706 30.9267C38.1686 31.2483 38.0549 31.5895 37.9294 31.9503C37.8118 32.311 37.6863 32.6718 37.5529 33.0326C37.4275 33.3934 37.302 33.7346 37.1765 34.0561C37.5765 34.5424 37.8392 34.9973 37.9647 35.4208C38.098 35.8444 38.1647 36.2405 38.1647 36.6091C38.1725 36.915 38.1373 37.1895 38.0588 37.4326C37.9882 37.6679 37.8745 37.8444 37.7176 37.962C37.5686 38.064 37.3725 38.1306 37.1294 38.162C37.0275 38.1699 36.9098 38.1777 36.7765 38.1855C36.651 38.1934 36.5255 38.1934 36.4 38.1855C36.4 38.0757 36.3804 37.9463 36.3412 37.7973C36.3098 37.6483 36.2627 37.5189 36.2 37.4091C36.3176 37.4169 36.4275 37.4248 36.5294 37.4326C36.6392 37.4326 36.7333 37.4287 36.8118 37.4208C36.9608 37.4208 37.0784 37.3895 37.1647 37.3267C37.2431 37.2561 37.298 37.1463 37.3294 36.9973C37.3686 36.8483 37.3882 36.6875 37.3882 36.515C37.3804 36.1934 37.3098 35.8365 37.1765 35.4444C37.051 35.0444 36.7922 34.613 36.4 34.1503C36.4941 33.8836 36.5882 33.6012 36.6824 33.3032C36.7843 32.9973 36.8784 32.6993 36.9647 32.4091C37.0588 32.111 37.1451 31.8287 37.2235 31.562C37.302 31.2954 37.3686 31.064 37.4235 30.8679V30.6208ZM53.6471 30.7855C53.6235 30.9424 53.6039 31.1071 53.5882 31.2797C53.5804 31.4444 53.5765 31.6091 53.5765 31.7738C53.5843 31.9855 53.5882 32.2718 53.5882 32.6326C53.5961 32.9855 53.6039 33.3855 53.6118 33.8326C53.6196 34.2797 53.6275 34.7503 53.6353 35.2444C53.6431 35.7385 53.651 36.2326 53.6588 36.7267C53.6667 37.2208 53.6745 37.6954 53.6824 38.1503C53.6902 38.6052 53.6941 39.0169 53.6941 39.3855C53.6941 39.6914 53.6039 39.9228 53.4235 40.0797C53.2431 40.2444 52.9765 40.3267 52.6235 40.3267C52.3255 40.3267 52.0078 40.3189 51.6706 40.3032C51.3412 40.2954 51.0314 40.2797 50.7412 40.2561L50.6588 39.2914C50.9412 39.3385 51.2314 39.3738 51.5294 39.3973C51.8353 39.4208 52.098 39.4326 52.3176 39.4326C52.4824 39.4326 52.5961 39.3934 52.6588 39.315C52.7216 39.2365 52.7529 39.1189 52.7529 38.962C52.7529 38.6797 52.7529 38.3385 52.7529 37.9385C52.7529 37.5385 52.749 37.1071 52.7412 36.6444C52.7412 36.1738 52.7373 35.6993 52.7294 35.2208C52.7216 34.7424 52.7137 34.2836 52.7059 33.8444C52.698 33.3973 52.6902 32.9934 52.6824 32.6326C52.6824 32.2718 52.6745 31.9855 52.6588 31.7738C52.6431 31.5463 52.6275 31.3581 52.6118 31.2091C52.5961 31.0522 52.5765 30.911 52.5529 30.7855H53.6471ZM47.3294 32.8444C47.502 32.8601 47.6784 32.8757 47.8588 32.8914C48.0471 32.9071 48.2314 32.915 48.4118 32.915C48.498 32.915 48.6784 32.915 48.9529 32.915C49.2275 32.915 49.5647 32.915 49.9647 32.915C50.3647 32.915 50.7922 32.915 51.2471 32.915C51.702 32.915 52.1569 32.915 52.6118 32.915C53.0745 32.915 53.502 32.915 53.8941 32.915C54.2941 32.915 54.6314 32.915 54.9059 32.915C55.1804 32.915 55.3608 32.915 55.4471 32.915C55.6039 32.915 55.7804 32.9071 55.9765 32.8914C56.1804 32.8679 56.3373 32.8522 56.4471 32.8444V33.8326C56.3137 33.8248 56.1529 33.8208 55.9647 33.8208C55.7843 33.813 55.6235 33.8091 55.4824 33.8091C55.4039 33.8091 55.2275 33.8091 54.9529 33.8091C54.6863 33.8091 54.349 33.8091 53.9412 33.8091C53.5412 33.8091 53.1098 33.8091 52.6471 33.8091C52.1922 33.8091 51.7294 33.8091 51.2588 33.8091C50.7961 33.8091 50.3647 33.8091 49.9647 33.8091C49.5647 33.8091 49.2275 33.8091 48.9529 33.8091C48.6784 33.8091 48.5059 33.8091 48.4353 33.8091C48.2392 33.8091 48.051 33.813 47.8706 33.8208C47.6902 33.8208 47.5098 33.8287 47.3294 33.8444V32.8444ZM46.8941 38.3385C47.5216 38.0405 48.1176 37.6954 48.6824 37.3032C49.2549 36.9032 49.7843 36.4914 50.2706 36.0679C50.7569 35.6365 51.1843 35.213 51.5529 34.7973C51.9216 34.3738 52.2118 33.9855 52.4235 33.6326L52.8941 33.6208L52.9059 34.4208C52.6863 34.7659 52.3922 35.1503 52.0235 35.5738C51.6549 35.9895 51.2314 36.413 50.7529 36.8444C50.2824 37.2679 49.7726 37.6757 49.2235 38.0679C48.6824 38.4601 48.1333 38.8052 47.5765 39.1032L46.8941 38.3385ZM60.3176 31.3738C60.5294 31.515 60.7725 31.6914 61.0471 31.9032C61.3216 32.1071 61.6 32.3267 61.8824 32.562C62.1725 32.7895 62.4431 33.013 62.6941 33.2326C62.9451 33.4522 63.1529 33.6444 63.3176 33.8091L62.5765 34.5503C62.4274 34.4012 62.2353 34.2169 62 33.9973C61.7647 33.7777 61.5059 33.5503 61.2235 33.315C60.9412 33.0718 60.6627 32.8444 60.3882 32.6326C60.1137 32.413 59.8667 32.2326 59.6471 32.0914L60.3176 31.3738ZM59.3059 39.2561C59.9961 39.1542 60.6235 39.013 61.1882 38.8326C61.7608 38.6522 62.2824 38.4483 62.7529 38.2208C63.2235 37.9934 63.6431 37.7659 64.0118 37.5385C64.6157 37.162 65.1725 36.7306 65.6824 36.2444C66.1922 35.7503 66.6392 35.2405 67.0235 34.715C67.4078 34.1895 67.7137 33.6875 67.9412 33.2091L68.5059 34.2091C68.2392 34.6954 67.9098 35.1895 67.5176 35.6914C67.1255 36.1934 66.6824 36.6757 66.1882 37.1385C65.6941 37.6012 65.149 38.0208 64.5529 38.3973C64.1608 38.6405 63.7294 38.8797 63.2588 39.115C62.7961 39.3503 62.2863 39.5659 61.7294 39.762C61.1804 39.9503 60.5804 40.1032 59.9294 40.2208L59.3059 39.2561Z" fill="#161616"/>
</svg>
