<svg width="40" height="46" viewBox="0 0 40 46" fill="none" xmlns="http://www.w3.org/2000/svg">
<g clip-path="url(#clip0_1154_146298)">
<rect x="0.345703" y="6.06787" width="39.5062" height="39.5062" rx="3.95062" fill="url(#paint0_linear_1154_146298)"/>
<path d="M20.2717 14.957C11.1334 15.0631 6.6772 25.6443 12.4097 32.5408L13.2596 33.5439C16.1338 36.698 19.8133 38.4053 20.068 38.521C20.6886 38.7847 30.68 33.2256 30.715 25.506C30.715 19.6898 26.0297 14.957 20.2717 14.957Z" fill="white"/>
<path d="M21.4844 20.0723L21.5137 20.1553L25.0947 30.6318L25.1514 30.7959H22.9424L22.9141 30.71L22.1016 28.2041H18.46L17.6475 30.71L17.6191 30.7959H15.417L15.4727 30.6328L19.042 20.1553L19.0703 20.0723H21.4844ZM19.0371 26.4404H21.5342L20.2793 22.6104L19.0371 26.4404Z" fill="#2554F8" stroke="#2554F8" stroke-width="0.246914"/>
<rect x="3.39535" y="0.389003" width="33.4074" height="11.4568" rx="1.7284" fill="#E9FCFE"/>
<rect x="3.39535" y="0.389003" width="33.4074" height="11.4568" rx="1.7284" stroke="#AEF3FC" stroke-width="0.493827"/>
<path d="M9.55042 4.26881C9.54817 4.59063 9.60331 4.91358 9.71583 5.23765C9.83061 5.56173 10.0016 5.8588 10.2289 6.12886C10.4563 6.39667 10.7319 6.60484 11.056 6.75338L10.5767 7.42853C10.2436 7.2755 9.95439 7.05382 9.70908 6.7635C9.46377 6.47094 9.27023 6.13336 9.12845 5.75077C8.98667 6.17162 8.78862 6.54183 8.53431 6.8614C8.28225 7.18097 7.98406 7.42178 7.63973 7.58382L7.14012 6.90191C7.46869 6.74887 7.74888 6.5317 7.98069 6.25039C8.21249 5.96682 8.3869 5.65287 8.50393 5.30855C8.62321 4.96422 8.68397 4.61764 8.68622 4.26881V3.89072H7.38317V3.18856H10.786V3.89072H9.55042V4.26881ZM12.1295 4.93721H13.0342V5.65963H12.1295V8.73833H11.2653V2.59443H12.1295V4.93721ZM18.8743 6.17274H13.257V5.49759H15.6471V4.97097H13.9389V2.86449H18.1991V3.53289H14.7964V4.29581H18.2329V4.97097H16.491V5.49759H18.8743V6.17274ZM16.0522 6.48331C16.4955 6.48331 16.877 6.5272 17.1965 6.61497C17.5161 6.70274 17.7614 6.83214 17.9325 7.00318C18.1035 7.17197 18.1901 7.37677 18.1924 7.61757C18.1901 7.85388 18.1035 8.05642 17.9325 8.22521C17.7614 8.394 17.515 8.52228 17.1932 8.61005C16.8736 8.70007 16.4933 8.74508 16.0522 8.74508C15.6066 8.74508 15.2217 8.70007 14.8976 8.61005C14.5758 8.52228 14.3283 8.394 14.155 8.22521C13.9839 8.05642 13.8984 7.85388 13.8984 7.61757C13.8984 7.37677 13.9839 7.17197 14.155 7.00318C14.326 6.83214 14.5724 6.70274 14.8943 6.61497C15.2183 6.5272 15.6043 6.48331 16.0522 6.48331ZM16.0522 7.13821C15.6268 7.13821 15.3072 7.17872 15.0934 7.25974C14.8796 7.34076 14.7739 7.46004 14.7761 7.61757C14.7739 7.77736 14.8785 7.89664 15.0901 7.97541C15.3016 8.05192 15.6223 8.09018 16.0522 8.09018C16.473 8.09018 16.7903 8.05192 17.0041 7.97541C17.2179 7.89664 17.3259 7.77736 17.3282 7.61757C17.3259 7.46004 17.2168 7.34076 17.0007 7.25974C16.7847 7.17872 16.4685 7.13821 16.0522 7.13821ZM22.7902 3.68818C22.7902 3.91773 22.8307 4.13828 22.9117 4.34983C22.995 4.55912 23.1233 4.74929 23.2966 4.92033C23.4699 5.08912 23.6882 5.22303 23.9515 5.32205L23.4924 5.97695C23.238 5.88018 23.0186 5.74515 22.8341 5.57186C22.6495 5.39857 22.4999 5.19489 22.3851 4.96084C22.2681 5.23765 22.1105 5.48071 21.9125 5.69001C21.7167 5.89705 21.4804 6.05797 21.2036 6.17274L20.7377 5.51109C21.0145 5.38956 21.243 5.23203 21.423 5.03848C21.6053 4.84269 21.7392 4.62889 21.8247 4.39709C21.9102 4.16528 21.953 3.92898 21.953 3.68818V2.96576H22.7902V3.68818ZM26.1052 6.35503H25.2883V4.79543H24.7752V6.16599H23.9717V2.7092H24.7752V4.10002H25.2883V2.60118H26.1052V6.35503ZM24.0055 6.4428C24.4353 6.4428 24.81 6.48894 25.1296 6.58121C25.4514 6.67348 25.699 6.80626 25.8723 6.97955C26.0478 7.15059 26.1367 7.35426 26.139 7.59057C26.1367 7.82687 26.0478 8.03054 25.8723 8.20158C25.699 8.37487 25.4514 8.50765 25.1296 8.59992C24.81 8.69219 24.4353 8.73833 24.0055 8.73833C23.5734 8.73833 23.1975 8.69219 22.878 8.59992C22.5584 8.50765 22.312 8.37487 22.1387 8.20158C21.9654 8.03054 21.8787 7.82687 21.8787 7.59057C21.8787 7.35426 21.9654 7.15059 22.1387 6.97955C22.312 6.80626 22.5584 6.67348 22.878 6.58121C23.1975 6.48894 23.5734 6.4428 24.0055 6.4428ZM24.0055 7.0842C23.6004 7.0842 23.2876 7.12809 23.067 7.21586C22.8487 7.30138 22.7407 7.42628 22.7429 7.59057C22.7407 7.75485 22.8487 7.87976 23.067 7.96528C23.2853 8.04855 23.5981 8.09018 24.0055 8.09018C24.4083 8.09018 24.7189 8.04855 24.9372 7.96528C25.1577 7.87976 25.268 7.75485 25.268 7.59057C25.268 7.42628 25.1577 7.30138 24.9372 7.21586C24.7189 7.12809 24.4083 7.0842 24.0055 7.0842ZM29.1231 3.43162C29.1209 3.71518 29.1693 3.98074 29.2683 4.2283C29.3696 4.47586 29.5249 4.69416 29.7342 4.8832C29.9457 5.07224 30.2101 5.21627 30.5275 5.3153L30.0751 5.99045C29.751 5.87793 29.4742 5.71926 29.2447 5.51447C29.0174 5.30967 28.8385 5.06549 28.7079 4.78193C28.5661 5.11275 28.3692 5.39857 28.1172 5.63937C27.8651 5.87793 27.559 6.05797 27.199 6.17949L26.7466 5.49084C27.0842 5.38281 27.3655 5.2264 27.5905 5.0216C27.8156 4.81456 27.981 4.57938 28.0868 4.31607C28.1948 4.05051 28.2499 3.76919 28.2522 3.47213V2.91175H29.1231V3.43162ZM31.979 6.193H31.1216V4.42409H29.9671V3.72193H31.1216V2.59443H31.979V6.193ZM29.8793 6.35503C30.3137 6.35503 30.6895 6.4023 31.0068 6.49682C31.3241 6.59134 31.5683 6.72862 31.7394 6.90866C31.9104 7.08645 31.9971 7.30025 31.9993 7.55006C31.9971 7.79986 31.9104 8.01366 31.7394 8.19145C31.5683 8.36925 31.3241 8.50428 31.0068 8.59655C30.6918 8.69107 30.3159 8.73833 29.8793 8.73833C29.4427 8.73833 29.0658 8.69107 28.7484 8.59655C28.4334 8.50428 28.1903 8.36925 28.0193 8.19145C27.8505 8.01366 27.7661 7.79986 27.7661 7.55006C27.7661 7.30025 27.8505 7.08645 28.0193 6.90866C28.1903 6.72862 28.4345 6.59134 28.7518 6.49682C29.0691 6.4023 29.445 6.35503 29.8793 6.35503ZM29.8793 7.02344C29.4675 7.02344 29.1547 7.06732 28.9409 7.15509C28.7293 7.24286 28.6235 7.37452 28.6235 7.55006C28.6235 7.71885 28.7304 7.84825 28.9442 7.93827C29.1603 8.02604 29.472 8.06993 29.8793 8.06993C30.2889 8.06993 30.6017 8.02604 30.8178 7.93827C31.0338 7.84825 31.1419 7.71885 31.1419 7.55006C31.1419 7.37677 31.0338 7.24624 30.8178 7.15847C30.604 7.06845 30.2912 7.02344 29.8793 7.02344Z" fill="url(#paint1_linear_1154_146298)"/>
</g>
<defs>
<linearGradient id="paint0_linear_1154_146298" x1="56.1127" y1="-73.8587" x2="-64.0989" y2="-54.6242" gradientUnits="userSpaceOnUse">
<stop offset="0.116616" stop-color="#0542FE"/>
<stop offset="0.199455" stop-color="#0542FE"/>
<stop offset="0.312628" stop-color="#245AFF"/>
<stop offset="0.379688" stop-color="#3791FF"/>
<stop offset="0.44964" stop-color="#37BBFF"/>
<stop offset="0.637524" stop-color="#64F57B"/>
<stop offset="1" stop-color="#64F57B"/>
</linearGradient>
<linearGradient id="paint1_linear_1154_146298" x1="56.0264" y1="-19.8828" x2="-37.3685" y2="18.3548" gradientUnits="userSpaceOnUse">
<stop offset="0.116616" stop-color="#0542FE"/>
<stop offset="0.199455" stop-color="#0542FE"/>
<stop offset="0.312628" stop-color="#245AFF"/>
<stop offset="0.379688" stop-color="#3791FF"/>
<stop offset="0.44964" stop-color="#37BBFF"/>
<stop offset="0.637524" stop-color="#64F57B"/>
<stop offset="1" stop-color="#64F57B"/>
</linearGradient>
<clipPath id="clip0_1154_146298">
<rect width="40" height="45.4321" fill="white"/>
</clipPath>
</defs>
</svg>
