<svg width="20" height="23" viewBox="0 0 20 23" fill="none" xmlns="http://www.w3.org/2000/svg">
<circle cx="9.66433" cy="9.66434" r="9.26986" fill="white" stroke="#3F3F3F" stroke-width="0.788924"/>
<path d="M9.49482 14.6888C8.80605 14.6888 8.18431 14.5617 7.6296 14.3075C7.07951 14.0532 6.64498 13.7019 6.32602 13.2535C6.01168 12.8005 5.84758 12.2897 5.83371 11.7211H7.85841C7.87228 11.98 7.95318 12.2088 8.1011 12.4076C8.24902 12.6064 8.44549 12.7612 8.69048 12.8722C8.93548 12.9831 9.20359 13.0386 9.49482 13.0386C9.83689 13.0386 10.142 12.9646 10.4101 12.8167C10.6828 12.6641 10.8932 12.4538 11.0411 12.1857C11.1936 11.913 11.2699 11.6056 11.2699 11.2635C11.2699 10.9122 11.1936 10.6002 11.0411 10.3274C10.8885 10.0547 10.6736 9.84205 10.3962 9.6895C10.1235 9.53233 9.81378 9.45144 9.46708 9.44682C8.7136 9.44682 8.18662 9.72879 7.88615 10.2928H6.00013L6.54097 4.50987H12.726V6.21562H8.26058L7.98322 8.75343H8.06643C8.25596 8.49918 8.52869 8.29579 8.88463 8.14324C9.2452 7.98607 9.64274 7.90749 10.0773 7.90749C10.6874 7.90749 11.2352 8.04848 11.7206 8.33046C12.2106 8.61244 12.5943 9.00536 12.8716 9.50922C13.1536 10.0085 13.2946 10.5747 13.2946 11.208C13.2946 11.8783 13.1351 12.4769 12.8162 13.0039C12.4972 13.5309 12.0488 13.9446 11.471 14.2451C10.8978 14.5409 10.2391 14.6888 9.49482 14.6888Z" fill="#3F3F3F"/>
</svg>
