<svg width="40" height="46" viewBox="0 0 40 46" fill="none" xmlns="http://www.w3.org/2000/svg">
<g clip-path="url(#clip0_1154_146298)">
<rect x="0.345703" y="6.06787" width="39.5062" height="39.5062" rx="3.95062" fill="url(#paint0_linear_1154_146298)"/>
<path d="M20.2717 14.957C11.1334 15.0631 6.6772 25.6443 12.4097 32.5408L13.2596 33.5439C16.1338 36.698 19.8133 38.4053 20.068 38.521C20.6886 38.7847 30.68 33.2256 30.715 25.506C30.715 19.6898 26.0297 14.957 20.2717 14.957Z" fill="white"/>
<path d="M21.4844 20.0723L21.5137 20.1553L25.0947 30.6318L25.1514 30.7959H22.9424L22.9141 30.71L22.1016 28.2041H18.46L17.6475 30.71L17.6191 30.7959H15.417L15.4727 30.6328L19.042 20.1553L19.0703 20.0723H21.4844ZM19.0371 26.4404H21.5342L20.2793 22.6104L19.0371 26.4404Z" fill="#2554F8" stroke="#2554F8" stroke-width="0.246914"/>
<rect x="2.39535" y="0.389003" width="35.4074" height="11.4568" rx="1.7284" fill="#E9FCFE"/>
<rect x="2.39535" y="0.389003" width="35.4074" height="11.4568" rx="1.7284" stroke="#AEF3FC" stroke-width="0.493827"/>
<path d="M7.57912 4.78484H11.5959V5.27571H7.57912V4.78484ZM7.57912 6.292H11.5959V6.77595H7.57912V6.292ZM7.57912 7.79916H11.5959V8.29003H7.57912V7.79916ZM7.22652 3.25694H11.9969V8.64262H11.4507V3.75472H7.75196V8.67719H7.22652V3.25694ZM9.24529 2.29595L9.84677 2.37892C9.77303 2.58632 9.69237 2.79373 9.60479 3.00114C9.52183 3.20855 9.44117 3.3883 9.36282 3.5404L8.89961 3.45052C8.9457 3.3399 8.98949 3.21776 9.03097 3.0841C9.07706 2.94583 9.11854 2.80986 9.15541 2.6762C9.19689 2.53793 9.22685 2.41118 9.24529 2.29595ZM13.4902 6.82435H16.6428V7.22534H13.4902V6.82435ZM13.3036 3.492H16.7604V3.8999H13.3036V3.492ZM14.8038 2.86978H15.2808V7.95126H14.8038V2.86978ZM13.3036 7.96509C13.5847 7.93743 13.9073 7.90748 14.2715 7.87521C14.6402 7.84295 15.0297 7.80608 15.4399 7.76459C15.8547 7.72311 16.2649 7.67933 16.6705 7.63324L16.6774 8.04114C16.2856 8.08723 15.8915 8.13332 15.4952 8.17941C15.0988 8.23011 14.7185 8.2739 14.3544 8.31077C13.9949 8.35225 13.6677 8.38912 13.3727 8.42139L13.3036 7.96509ZM13.9396 5.53842V6.04311H16.1865V5.53842H13.9396ZM13.9396 4.69496V5.19274H16.1865V4.69496H13.9396ZM13.511 4.33546H16.629V6.40262H13.511V4.33546ZM16.3801 2.37892L16.6359 2.7799C16.364 2.83521 16.0506 2.88591 15.6957 2.932C15.3408 2.97809 14.972 3.01727 14.5895 3.04953C14.2115 3.07719 13.8497 3.09562 13.5041 3.10484C13.4948 3.04953 13.4764 2.98501 13.4487 2.91126C13.4257 2.83752 13.4027 2.77299 13.3796 2.71768C13.6377 2.70385 13.9027 2.68772 14.1747 2.66929C14.4512 2.64624 14.7231 2.62089 14.9905 2.59324C15.2624 2.56558 15.5159 2.53332 15.751 2.49645C15.9906 2.45957 16.2004 2.4204 16.3801 2.37892ZM16.705 3.92756H19.2008V4.40459H16.705V3.92756ZM19.0004 3.92756H19.4981C19.4981 3.92756 19.4981 3.94599 19.4981 3.98287C19.4981 4.01513 19.4981 4.052 19.4981 4.09348C19.4981 4.13036 19.4981 4.16031 19.4981 4.18336C19.4797 4.9162 19.459 5.53381 19.4359 6.0362C19.4175 6.53398 19.3944 6.94188 19.3668 7.2599C19.3391 7.57793 19.3045 7.82451 19.2631 7.99966C19.2262 8.17019 19.1778 8.29233 19.1179 8.36608C19.058 8.45826 18.9911 8.52278 18.9174 8.55966C18.8436 8.59653 18.7561 8.61957 18.6547 8.62879C18.5579 8.64262 18.4334 8.64723 18.2813 8.64262C18.1292 8.64262 17.9702 8.64032 17.8043 8.63571C17.7997 8.56196 17.7836 8.47669 17.7559 8.3799C17.7283 8.28772 17.6937 8.20706 17.6522 8.13793C17.8227 8.15176 17.9794 8.15867 18.1223 8.15867C18.2652 8.16328 18.3689 8.16558 18.4334 8.16558C18.4887 8.16558 18.5348 8.15867 18.5717 8.14484C18.6086 8.13101 18.6431 8.10336 18.6754 8.06188C18.7215 8.00657 18.7607 7.89826 18.7929 7.73694C18.8252 7.57101 18.8529 7.33365 18.8759 7.02484C18.899 6.71604 18.9197 6.31735 18.9381 5.82879C18.9612 5.34023 18.9819 4.74566 19.0004 4.04509V3.92756ZM17.5416 2.39966H18.0463C18.0417 2.94813 18.0324 3.47818 18.0186 3.98978C18.0094 4.50138 17.9794 4.98764 17.9287 5.44855C17.878 5.90945 17.7928 6.3404 17.6729 6.74138C17.5577 7.14237 17.3941 7.50879 17.1821 7.84064C16.9747 8.16789 16.705 8.45595 16.3732 8.70484C16.3501 8.66336 16.3156 8.61957 16.2695 8.57348C16.2234 8.52739 16.175 8.4813 16.1243 8.43521C16.0782 8.39373 16.0344 8.35916 15.9929 8.33151C16.3064 8.10566 16.5622 7.84064 16.7604 7.53645C16.9585 7.22764 17.1106 6.88657 17.2166 6.51324C17.3273 6.13529 17.4033 5.7297 17.4448 5.29645C17.4909 4.85859 17.5185 4.39768 17.5278 3.91373C17.537 3.42517 17.5416 2.92048 17.5416 2.39966ZM21.3717 3.65101H26.1559V4.15571H21.3717V3.65101ZM21.0675 5.68361H25.907V6.18138H21.0675V5.68361ZM20.307 7.94435H26.4878V8.44904H20.307V7.94435ZM23.1278 2.30978H23.667V8.19324H23.1278V2.30978ZM21.5791 2.4204L22.1045 2.53793C22.0078 2.89283 21.8902 3.24081 21.752 3.58188C21.6137 3.91834 21.4616 4.23406 21.2957 4.52904C21.1297 4.81941 20.9523 5.07521 20.7633 5.29645C20.7311 5.26418 20.685 5.22962 20.625 5.19274C20.5697 5.15587 20.5121 5.119 20.4522 5.08213C20.3969 5.04064 20.3462 5.00838 20.3001 4.98534C20.4891 4.78254 20.6619 4.54517 20.8186 4.27324C20.9799 3.99669 21.1251 3.70171 21.2542 3.3883C21.3832 3.07488 21.4915 2.75225 21.5791 2.4204ZM28.0226 4.90237H29.7371V5.38632H28.0226V4.90237ZM29.5366 4.90237H30.0413C30.0413 4.90237 30.0413 4.9162 30.0413 4.94385C30.0413 4.9669 30.039 4.99686 30.0344 5.03373C30.0344 5.0706 30.0344 5.10056 30.0344 5.12361C30.0252 5.63982 30.0114 6.05924 29.9929 6.38188C29.9791 6.6999 29.9584 6.94188 29.9307 7.1078C29.9077 7.27373 29.8708 7.38896 29.8201 7.45348C29.7648 7.51801 29.7049 7.5641 29.6404 7.59176C29.5804 7.61941 29.5021 7.64015 29.4053 7.65398C29.3131 7.6632 29.1933 7.6678 29.0458 7.6678C28.8983 7.6632 28.7393 7.65628 28.5687 7.64706C28.5641 7.57332 28.548 7.49266 28.5204 7.40509C28.4973 7.31291 28.465 7.23225 28.4236 7.16311C28.5803 7.18155 28.7278 7.19307 28.866 7.19768C29.0043 7.19768 29.1011 7.19768 29.1564 7.19768C29.2071 7.19768 29.2486 7.19307 29.2808 7.18385C29.3177 7.17464 29.35 7.1539 29.3776 7.12163C29.4099 7.08015 29.4352 6.98797 29.4537 6.84509C29.4767 6.6976 29.4929 6.47636 29.5021 6.18138C29.5159 5.8818 29.5274 5.48311 29.5366 4.98534V4.90237ZM31.4794 2.65546L31.7905 2.33743C31.938 2.40657 32.0901 2.48953 32.2468 2.58632C32.4081 2.6785 32.5579 2.77299 32.6962 2.86978C32.8344 2.96196 32.9497 3.04723 33.0418 3.12558L32.7169 3.48509C32.6293 3.40213 32.5164 3.31225 32.3781 3.21546C32.2399 3.11406 32.0924 3.01497 31.9357 2.91817C31.779 2.82138 31.6269 2.73381 31.4794 2.65546ZM32.4749 4.52904L32.9934 4.6604C32.6985 5.56377 32.2952 6.34731 31.7836 7.01101C31.272 7.67472 30.6636 8.21628 29.9584 8.63571C29.9307 8.59883 29.8938 8.55274 29.8478 8.49743C29.8017 8.44673 29.7533 8.39373 29.7026 8.33842C29.6565 8.28772 29.615 8.24394 29.5781 8.20706C30.2787 7.83834 30.871 7.34287 31.3549 6.72064C31.8389 6.09381 32.2122 5.36328 32.4749 4.52904ZM28.0641 3.48509H33.4152V3.98978H28.0641V3.48509ZM27.7253 3.48509H28.2645V5.43472C28.2645 5.679 28.2553 5.94402 28.2369 6.22978C28.2185 6.51554 28.1839 6.80591 28.1332 7.10089C28.0825 7.39587 28.0087 7.68394 27.912 7.96509C27.8152 8.24163 27.6861 8.49283 27.5248 8.71867C27.4971 8.6818 27.4557 8.64032 27.4004 8.59422C27.3497 8.54813 27.2943 8.50435 27.2344 8.46287C27.1791 8.42139 27.1307 8.39143 27.0892 8.37299C27.2828 8.08723 27.4234 7.77381 27.511 7.43274C27.6031 7.09167 27.6608 6.7483 27.6838 6.40262C27.7115 6.05233 27.7253 5.72739 27.7253 5.4278V3.48509ZM30.6013 2.31669H31.1406C31.136 2.95735 31.159 3.56575 31.2097 4.14188C31.2604 4.71801 31.3319 5.24805 31.4241 5.732C31.5162 6.21134 31.6269 6.62846 31.7559 6.98336C31.8896 7.33365 32.0348 7.60558 32.1915 7.79916C32.3528 7.99274 32.521 8.08953 32.6962 8.08953C32.7976 8.08953 32.8713 7.99274 32.9174 7.79916C32.9681 7.60097 33.0027 7.27143 33.0211 6.81052C33.081 6.86583 33.1525 6.92114 33.2354 6.97645C33.323 7.03176 33.4013 7.07093 33.4705 7.09398C33.4382 7.49036 33.3921 7.79916 33.3322 8.0204C33.2769 8.24163 33.1939 8.39604 33.0833 8.48361C32.9773 8.57579 32.8344 8.62188 32.6547 8.62188C32.4242 8.62188 32.2122 8.54352 32.0186 8.38682C31.825 8.23011 31.6522 8.00887 31.5001 7.72311C31.3526 7.43735 31.2236 7.10089 31.1129 6.71373C31.0023 6.32196 30.9078 5.89101 30.8295 5.42089C30.7557 4.95077 30.7004 4.45529 30.6636 3.93447C30.6267 3.40904 30.6059 2.86978 30.6013 2.31669Z" fill="url(#paint1_linear_1154_146298)"/>
</g>
<defs>
<linearGradient id="paint0_linear_1154_146298" x1="56.1127" y1="-73.8587" x2="-64.0989" y2="-54.6242" gradientUnits="userSpaceOnUse">
<stop offset="0.116616" stop-color="#0542FE"/>
<stop offset="0.199455" stop-color="#0542FE"/>
<stop offset="0.312628" stop-color="#245AFF"/>
<stop offset="0.379688" stop-color="#3791FF"/>
<stop offset="0.44964" stop-color="#37BBFF"/>
<stop offset="0.637524" stop-color="#64F57B"/>
<stop offset="1" stop-color="#64F57B"/>
</linearGradient>
<linearGradient id="paint1_linear_1154_146298" x1="58.79" y1="-19.8828" x2="-39.534" y2="23.4694" gradientUnits="userSpaceOnUse">
<stop offset="0.116616" stop-color="#0542FE"/>
<stop offset="0.199455" stop-color="#0542FE"/>
<stop offset="0.312628" stop-color="#245AFF"/>
<stop offset="0.379688" stop-color="#3791FF"/>
<stop offset="0.44964" stop-color="#37BBFF"/>
<stop offset="0.637524" stop-color="#64F57B"/>
<stop offset="1" stop-color="#64F57B"/>
</linearGradient>
<clipPath id="clip0_1154_146298">
<rect width="40" height="45.4321" fill="white"/>
</clipPath>
</defs>
</svg>
