<svg width="30" height="30" viewBox="0 0 30 30" fill="none" xmlns="http://www.w3.org/2000/svg">
<path d="M16.876 6.25049C16.876 7.28607 16.0366 8.12646 15.001 8.12646C13.9656 8.12625 13.126 7.28594 13.126 6.25049C13.1262 5.21525 13.9657 4.3757 15.001 4.37549C16.0364 4.37549 16.8757 5.21511 16.876 6.25049ZM16.877 14.3755C16.877 15.4111 16.0366 16.2505 15.001 16.2505C13.9656 16.2503 13.126 15.4109 13.126 14.3755C13.1261 13.3401 13.9656 12.5007 15.001 12.5005C16.0365 12.5005 16.8768 13.34 16.877 14.3755ZM16.877 22.5005C16.877 23.5361 16.0366 24.3755 15.001 24.3755C13.9656 24.3753 13.126 23.5359 13.126 22.5005C13.1262 21.4652 13.9657 20.6257 15.001 20.6255C16.0364 20.6255 16.8768 21.4651 16.877 22.5005Z" fill="#282828"/>
</svg>
