<svg width="40" height="42" viewBox="0 0 40 42" fill="none" xmlns="http://www.w3.org/2000/svg">
<rect width="40" height="41.5305" rx="6.057" fill="black"/>
<path d="M14.1283 12.1138C14.5256 12.1138 14.8477 12.4358 14.8477 12.8331L14.8477 28.6969C14.8477 29.0942 14.5256 29.4163 14.1283 29.4163L12.8334 29.4163C12.4361 29.4163 12.1141 29.0942 12.1141 28.6969L12.1141 12.8331C12.1141 12.4358 12.4361 12.1138 12.8334 12.1138L14.1283 12.1138Z" fill="white"/>
<path d="M20.6478 12.1138C21.0451 12.1138 21.3672 12.4358 21.3672 12.8331L21.3672 28.6969C21.3672 29.0942 21.0451 29.4163 20.6478 29.4163L19.353 29.4163C18.9557 29.4163 18.6336 29.0942 18.6336 28.6969L18.6336 12.8331C18.6336 12.4358 18.9557 12.1138 19.353 12.1138L20.6478 12.1138Z" fill="white"/>
<path d="M27.1674 12.1138C27.5646 12.1138 27.8867 12.4358 27.8867 12.8331L27.8867 28.6969C27.8867 29.0942 27.5646 29.4163 27.1674 29.4163L25.8725 29.4163C25.4752 29.4163 25.1531 29.0942 25.1531 28.6969L25.1531 12.8331C25.1531 12.4358 25.4752 12.1138 25.8725 12.1138L27.1674 12.1138Z" fill="white"/>
</svg>
