<svg width="22" height="22" viewBox="0 0 22 22" fill="none" xmlns="http://www.w3.org/2000/svg">
<rect x="0.434785" y="0.434846" width="20.8696" height="20.8696" rx="1.30435" fill="white"/>
<rect x="0.434785" y="0.434846" width="20.8696" height="20.8696" rx="1.30435" stroke="#3F3F3F" stroke-width="0.869565"/>
<path d="M8.04209 16.3479H5.73401V7.46713H5.67287L3.1355 9.0568V7.02385L5.87158 5.28132H8.04209V16.3479ZM10.4226 14.6818L14.3968 11.0286C14.7891 10.6516 15.0922 10.3382 15.3062 10.0886C15.5253 9.8389 15.6935 9.59179 15.8106 9.34722C15.9278 9.09756 15.9864 8.83262 15.9864 8.55238C15.9864 8.23139 15.91 7.95116 15.7571 7.71169C15.6094 7.47222 15.4005 7.2888 15.1304 7.16142C14.8655 7.02895 14.5649 6.96271 14.2286 6.96271C13.7089 6.96271 13.2937 7.11811 12.9829 7.42891C12.6721 7.73462 12.5167 8.14987 12.5167 8.67467H10.3309C10.3258 7.96135 10.4863 7.3372 10.8123 6.80221C11.1435 6.26723 11.6072 5.85452 12.2033 5.5641C12.7994 5.27368 13.4847 5.12847 14.2592 5.12847C15.0387 5.12847 15.7266 5.26859 16.3227 5.54882C16.9188 5.82395 17.3799 6.20863 17.706 6.70286C18.0372 7.19709 18.2028 7.76264 18.2028 8.39953C18.2028 8.83262 18.1187 9.25041 17.9506 9.65293C17.7825 10.0503 17.4895 10.4962 17.0717 10.9904C16.659 11.4795 16.073 12.068 15.3139 12.7558L13.6325 14.3914V14.4525H18.3557V16.3479H10.4379L10.4226 14.6818Z" fill="#3F3F3F"/>
</svg>
