<svg width="22" height="22" viewBox="0 0 22 22" fill="none" xmlns="http://www.w3.org/2000/svg">
<circle cx="10.6521" cy="10.6522" r="10.2174" fill="white" stroke="#3F3F3F" stroke-width="0.869565"/>
<path d="M6.5001 15.9131H4.19201V7.03231H4.13087L1.59351 8.62199V6.58904L4.32958 4.84651H6.5001V15.9131ZM13.191 16.0659C12.2688 16.0659 11.474 15.8443 10.8065 15.401C10.1442 14.9527 9.63465 14.303 9.27799 13.4521C8.92133 12.6013 8.743 11.5771 8.743 10.3798C8.743 9.18245 8.92133 8.15833 9.27799 7.30745C9.63465 6.45656 10.1442 5.80949 10.8065 5.36621C11.474 4.91784 12.2688 4.69366 13.191 4.69366C14.1082 4.69366 14.9004 4.91784 15.5679 5.36621C16.2354 5.80949 16.7474 6.45911 17.1041 7.31509C17.4607 8.16597 17.6391 9.18754 17.6391 10.3798C17.6391 11.5822 17.4607 12.6089 17.1041 13.4598C16.7474 14.3107 16.2354 14.9578 15.5679 15.401C14.9055 15.8443 14.1132 16.0659 13.191 16.0659ZM13.191 14.1706C13.619 14.1706 13.9884 14.033 14.2992 13.7579C14.6151 13.4827 14.8571 13.0675 15.0253 12.5121C15.1985 11.9567 15.2851 11.2714 15.2851 10.4562C15.2851 9.18754 15.1017 8.22457 14.7349 7.5673C14.368 6.90493 13.8534 6.57375 13.191 6.57375C12.5287 6.57375 12.0141 6.90493 11.6472 7.5673C11.2804 8.22457 11.0969 9.18754 11.0969 10.4562C11.0969 11.2714 11.181 11.9567 11.3492 12.5121C11.5224 13.0675 11.7644 13.4827 12.0752 13.7579C12.3911 14.033 12.763 14.1706 13.191 14.1706Z" fill="#3F3F3F"/>
</svg>
