<svg width="22" height="22" viewBox="0 0 22 22" fill="none" xmlns="http://www.w3.org/2000/svg">
<rect x="0.434785" y="0.434846" width="20.8696" height="20.8696" rx="1.30435" fill="white"/>
<rect x="0.434785" y="0.434846" width="20.8696" height="20.8696" rx="1.30435" stroke="#3F3F3F" stroke-width="0.869565"/>
<path d="M7.91217 16.3479H5.60408V7.46713H5.54294L3.00558 9.0568V7.02385L5.74165 5.28132H7.91217V16.3479ZM14.3738 16.5008C13.6147 16.5008 12.9294 16.3606 12.3179 16.0804C11.7116 15.8002 11.2327 15.4129 10.8811 14.9187C10.5347 14.4194 10.3538 13.8564 10.3385 13.2297H12.5702C12.5854 13.515 12.6746 13.7672 12.8377 13.9863C13.0007 14.2054 13.2172 14.3761 13.4873 14.4984C13.7573 14.6207 14.0528 14.6818 14.3738 14.6818C14.7509 14.6818 15.0871 14.6003 15.3827 14.4372C15.6833 14.2691 15.9151 14.0373 16.0781 13.7418C16.2463 13.4411 16.3303 13.1023 16.3303 12.7253C16.3303 12.338 16.2463 11.9941 16.0781 11.6935C15.91 11.3929 15.6731 11.1585 15.3674 10.9904C15.0668 10.8172 14.7254 10.728 14.3433 10.7229C13.5128 10.7229 12.9319 11.0337 12.6007 11.6553H10.5219L11.1181 5.28132H17.9353V7.16142H13.0134L12.7077 9.95863H12.7994C13.0083 9.6784 13.3089 9.45422 13.7013 9.28608C14.0987 9.11285 14.5369 9.02623 15.0158 9.02623C15.6884 9.02623 16.2921 9.18163 16.8271 9.49243C17.3672 9.80323 17.7901 10.2363 18.0958 10.7917C18.4066 11.342 18.562 11.9661 18.562 12.6641C18.562 13.4029 18.3862 14.0627 18.0347 14.6436C17.6831 15.2244 17.1889 15.6804 16.552 16.0116C15.9202 16.3377 15.1941 16.5008 14.3738 16.5008Z" fill="#3F3F3F"/>
</svg>
