<svg width="40" height="21" viewBox="0 0 40 21" fill="none" xmlns="http://www.w3.org/2000/svg">
<rect width="39.8684" height="20.5789" rx="1.64474" fill="#E6F0FF"/>
<path d="M13.7673 10.6579H12.7104V8.43172H10.8215V7.55474H12.7104V5.17116H13.7673V10.6579ZM8.26927 12.2657H12.7104V11.1076H13.7673V15.1215H7.2124V11.1076H8.26927V12.2657ZM12.7104 14.2558V13.0977H8.26927V14.2558H12.7104ZM8.98884 6.74522C8.98884 7.16123 9.08629 7.56973 9.28117 7.97075C9.47605 8.37176 9.75714 8.72967 10.1244 9.04448C10.4917 9.3593 10.9227 9.60103 11.4174 9.76968L10.8665 10.6017C10.3081 10.4068 9.82272 10.1182 9.41047 9.73595C9.00196 9.35367 8.68527 8.90956 8.46041 8.40361C8.23554 8.96953 7.90574 9.46423 7.471 9.88773C7.04 10.3075 6.5303 10.6204 5.9419 10.8265L5.39098 9.9833C5.89693 9.80715 6.33917 9.55231 6.71769 9.21875C7.09622 8.8852 7.38667 8.50293 7.58905 8.07194C7.79518 7.64094 7.89824 7.19496 7.89824 6.73398V6.59906H5.71704V5.73333H11.1476V6.59906H8.98884V6.74522ZM24.5384 11.0514H15.3301V10.1744H19.3889V8.70156H20.4458V10.1744H24.5384V11.0514ZM20.457 5.75581C20.457 6.17556 20.6144 6.57283 20.9292 6.9476C21.2441 7.32238 21.6694 7.63907 22.2054 7.89766C22.7413 8.15626 23.3316 8.32678 23.9762 8.40923L23.5602 9.25248C22.7469 9.12506 22.0124 8.87208 21.3565 8.49356C20.7044 8.11503 20.2228 7.65406 19.9117 7.11063C19.5969 7.65781 19.1116 8.12066 18.4557 8.49918C17.8036 8.87396 17.069 9.12506 16.252 9.25248L15.8585 8.40923C16.4956 8.32678 17.0822 8.15626 17.6181 7.89766C18.1578 7.63907 18.585 7.32238 18.8998 6.9476C19.2146 6.56908 19.3739 6.17181 19.3777 5.75581V5.32857H20.457V5.75581ZM23.3915 15.2452H22.3122V12.7829H16.3532V11.9396H23.3915V15.2452ZM34.4662 10.7029H30.3961V11.6698C31.3293 11.7223 32.0526 11.9022 32.5661 12.2095C33.0833 12.513 33.3419 12.9253 33.3419 13.4462C33.3419 13.8248 33.2032 14.1471 32.9259 14.4132C32.6485 14.683 32.2494 14.8854 31.7285 15.0203C31.2113 15.159 30.591 15.2264 29.8677 15.2227C29.1369 15.2264 28.5091 15.159 27.9844 15.0203C27.4635 14.8854 27.0643 14.683 26.787 14.4132C26.5097 14.1471 26.371 13.8248 26.371 13.4462C26.371 12.9253 26.6296 12.513 27.1468 12.2095C27.664 11.9022 28.3948 11.7223 29.3392 11.6698V10.7029H25.2804V9.83714H34.4662V10.7029ZM29.8677 12.4793C29.0956 12.4793 28.4997 12.5636 28.08 12.7323C27.6602 12.9009 27.4504 13.1389 27.4504 13.4462C27.4504 13.7498 27.6621 13.9859 28.0856 14.1546C28.5091 14.3232 29.1031 14.4057 29.8677 14.4019C30.3699 14.4057 30.8009 14.3701 31.1607 14.2951C31.5242 14.2202 31.7997 14.1115 31.987 13.9691C32.1782 13.8229 32.2738 13.6486 32.2738 13.4462C32.2738 13.1389 32.062 12.9009 31.6385 12.7323C31.2188 12.5636 30.6285 12.4793 29.8677 12.4793ZM33.6454 6.48663H30.5873C30.636 6.80519 30.814 7.10501 31.1213 7.38609C31.4324 7.66718 31.8371 7.90329 32.3356 8.09442C32.8378 8.28181 33.3906 8.40549 33.994 8.46545L33.6117 9.3087C33.0308 9.24124 32.4892 9.11756 31.987 8.93767C31.4886 8.75403 31.0557 8.52354 30.6884 8.24621C30.3249 7.96887 30.0532 7.65406 29.8733 7.30177C29.6897 7.65406 29.4142 7.96887 29.0469 8.24621C28.6834 8.52354 28.2524 8.75403 27.7539 8.93767C27.2555 9.11756 26.7158 9.24124 26.1349 9.3087L25.7639 8.46545C26.3598 8.40549 26.9051 8.28181 27.3998 8.09442C27.8982 7.90329 28.3011 7.66718 28.6084 7.38609C28.9195 7.10501 29.0994 6.80519 29.1481 6.48663H26.1237V5.63214H33.6454V6.48663Z" fill="#043ADA"/>
</svg>
