<svg width="61" height="25" viewBox="0 0 61 25" fill="none" xmlns="http://www.w3.org/2000/svg">
<rect width="61" height="25" rx="2" fill="#E9E9E9"/>
<path d="M16.9512 12.584H15.666V9.87695H13.3691V8.81055H15.666V5.91211H16.9512V12.584ZM10.2656 14.5391H15.666V13.1309H16.9512V18.0117H8.98047V13.1309H10.2656V14.5391ZM15.666 16.959V15.5508H10.2656V16.959H15.666ZM11.1406 7.82617C11.1406 8.33203 11.2591 8.82878 11.4961 9.31641C11.7331 9.80404 12.0749 10.2393 12.5215 10.6221C12.9681 11.0049 13.4922 11.2988 14.0938 11.5039L13.4238 12.5156C12.7448 12.2786 12.1546 11.9277 11.6533 11.4629C11.1566 10.998 10.7715 10.458 10.498 9.84277C10.2246 10.5309 9.82357 11.1325 9.29492 11.6475C8.77083 12.1579 8.15104 12.5384 7.43555 12.7891L6.76562 11.7637C7.38086 11.5495 7.91862 11.2396 8.37891 10.834C8.83919 10.4284 9.19238 9.96354 9.43848 9.43945C9.68913 8.91536 9.81445 8.37305 9.81445 7.8125V7.64844H7.16211V6.5957H13.7656V7.64844H11.1406V7.82617ZM30.0488 13.0625H18.8516V11.9961H23.7871V10.2051H25.0723V11.9961H30.0488V13.0625ZM25.0859 6.62305C25.0859 7.13346 25.2773 7.61654 25.6602 8.07227C26.043 8.52799 26.5602 8.91309 27.2119 9.22754C27.8636 9.54199 28.5814 9.74935 29.3652 9.84961L28.8594 10.875C27.8704 10.7201 26.9772 10.4124 26.1797 9.95215C25.3867 9.49186 24.8011 8.93132 24.4229 8.27051C24.04 8.93587 23.4499 9.4987 22.6523 9.95898C21.8594 10.4147 20.9661 10.7201 19.9727 10.875L19.4941 9.84961C20.2689 9.74935 20.9821 9.54199 21.6338 9.22754C22.29 8.91309 22.8096 8.52799 23.1924 8.07227C23.5752 7.61198 23.7689 7.12891 23.7734 6.62305V6.10352H25.0859V6.62305ZM28.6543 18.1621H27.3418V15.168H20.0957V14.1426H28.6543V18.1621ZM33.6992 7.16992H39.373V6.10352H40.6719V10.1641H32.4141V6.10352H33.6992V7.16992ZM39.373 9.17969V8.12695H33.6992V9.17969H39.373ZM42.1211 12.1055H37.1719V13.1582H40.7129V16.0156H33.5762V17.041H41.0547V18.0391H32.3047V15.0859H39.4277V14.1289H32.291V13.1582H35.873V12.1055H30.9512V11.0527H42.1211V12.1055ZM52.5938 10.793H54.4941V11.873H52.5938V18.1484H51.2949V5.91211H52.5938V10.793ZM49.3945 7.19727C49.3854 9.06576 48.932 10.7428 48.0342 12.2285C47.1364 13.7142 45.7214 14.9355 43.7891 15.8926L43.0645 14.8809C44.5957 14.1152 45.7783 13.181 46.6123 12.0781C47.4508 10.9753 47.9362 9.70833 48.0684 8.27734H43.6797V7.19727H49.3945Z" fill="#161616"/>
</svg>
