<svg width="61" height="25" viewBox="0 0 61 25" fill="none" xmlns="http://www.w3.org/2000/svg">
<rect width="61" height="25" rx="2" fill="#D1FFE3"/>
<path d="M16.9512 12.584H15.666V9.87695H13.3691V8.81055H15.666V5.91211H16.9512V12.584ZM10.2656 14.5391H15.666V13.1309H16.9512V18.0117H8.98047V13.1309H10.2656V14.5391ZM15.666 16.959V15.5508H10.2656V16.959H15.666ZM11.1406 7.82617C11.1406 8.33203 11.2591 8.82878 11.4961 9.31641C11.7331 9.80404 12.0749 10.2393 12.5215 10.6221C12.9681 11.0049 13.4922 11.2988 14.0938 11.5039L13.4238 12.5156C12.7448 12.2786 12.1546 11.9277 11.6533 11.4629C11.1566 10.998 10.7715 10.458 10.498 9.84277C10.2246 10.5309 9.82357 11.1325 9.29492 11.6475C8.77083 12.1579 8.15104 12.5384 7.43555 12.7891L6.76562 11.7637C7.38086 11.5495 7.91862 11.2396 8.37891 10.834C8.83919 10.4284 9.19238 9.96354 9.43848 9.43945C9.68913 8.91536 9.81445 8.37305 9.81445 7.8125V7.64844H7.16211V6.5957H13.7656V7.64844H11.1406V7.82617ZM30.0488 13.0625H18.8516V11.9961H23.7871V10.2051H25.0723V11.9961H30.0488V13.0625ZM25.0859 6.62305C25.0859 7.13346 25.2773 7.61654 25.6602 8.07227C26.043 8.52799 26.5602 8.91309 27.2119 9.22754C27.8636 9.54199 28.5814 9.74935 29.3652 9.84961L28.8594 10.875C27.8704 10.7201 26.9772 10.4124 26.1797 9.95215C25.3867 9.49186 24.8011 8.93132 24.4229 8.27051C24.04 8.93587 23.4499 9.4987 22.6523 9.95898C21.8594 10.4147 20.9661 10.7201 19.9727 10.875L19.4941 9.84961C20.2689 9.74935 20.9821 9.54199 21.6338 9.22754C22.29 8.91309 22.8096 8.52799 23.1924 8.07227C23.5752 7.61198 23.7689 7.12891 23.7734 6.62305V6.10352H25.0859V6.62305ZM28.6543 18.1621H27.3418V15.168H20.0957V14.1426H28.6543V18.1621ZM40.4941 10.793H42.3945V11.873H40.4941V18.1484H39.1953V5.91211H40.4941V10.793ZM37.2949 7.19727C37.2858 9.06576 36.8324 10.7428 35.9346 12.2285C35.0368 13.7142 33.6217 14.9355 31.6895 15.8926L30.9648 14.8809C32.4961 14.1152 33.6787 13.181 34.5127 12.0781C35.3512 10.9753 35.8366 9.70833 35.9688 8.27734H31.5801V7.19727H37.2949ZM52.9492 10.2734H44.541V6.13086H45.8262V9.2207H52.9492V10.2734ZM54.2344 12.6387H43.0508V11.5723H54.2344V12.6387ZM48.6289 13.6367C49.5085 13.6367 50.2627 13.7233 50.8916 13.8965C51.5251 14.0697 52.0104 14.3249 52.3477 14.6621C52.6849 14.9948 52.8535 15.3958 52.8535 15.8652C52.8535 16.3392 52.6849 16.7425 52.3477 17.0752C52.0104 17.4124 51.5251 17.6676 50.8916 17.8408C50.2627 18.0186 49.5085 18.1074 48.6289 18.1074C47.7448 18.1074 46.9837 18.0186 46.3457 17.8408C45.7122 17.6676 45.2246 17.4124 44.8828 17.0752C44.5456 16.7425 44.377 16.3392 44.377 15.8652C44.377 15.3958 44.5456 14.9948 44.8828 14.6621C45.2246 14.3249 45.7122 14.0697 46.3457 13.8965C46.9837 13.7233 47.7448 13.6367 48.6289 13.6367ZM48.6289 14.6484C47.681 14.6576 46.9541 14.7646 46.4482 14.9697C45.9424 15.1748 45.6895 15.4733 45.6895 15.8652C45.6895 16.2572 45.9447 16.5625 46.4551 16.7812C46.9701 17 47.6947 17.1094 48.6289 17.1094C49.2396 17.1094 49.7637 17.0615 50.2012 16.9658C50.6432 16.8656 50.9782 16.722 51.2061 16.5352C51.4385 16.3483 51.5547 16.125 51.5547 15.8652C51.5547 15.4733 51.2995 15.1748 50.7891 14.9697C50.2832 14.7646 49.5632 14.6576 48.6289 14.6484Z" fill="#017E35"/>
</svg>
