<svg width="49" height="25" viewBox="0 0 49 25" fill="none" xmlns="http://www.w3.org/2000/svg">
<rect width="49" height="25" rx="2" fill="#E6F0FF"/>
<path d="M17.001 12.584H15.7158V9.87695H13.4189V8.81055H15.7158V5.91211H17.001V12.584ZM10.3154 14.5391H15.7158V13.1309H17.001V18.0117H9.03027V13.1309H10.3154V14.5391ZM15.7158 16.959V15.5508H10.3154V16.959H15.7158ZM11.1904 7.82617C11.1904 8.33203 11.3089 8.82878 11.5459 9.31641C11.7829 9.80404 12.1247 10.2393 12.5713 10.6221C13.0179 11.0049 13.542 11.2988 14.1436 11.5039L13.4736 12.5156C12.7946 12.2786 12.2044 11.9277 11.7031 11.4629C11.2064 10.998 10.8213 10.458 10.5479 9.84277C10.2744 10.5309 9.87337 11.1325 9.34473 11.6475C8.82064 12.1579 8.20085 12.5384 7.48535 12.7891L6.81543 11.7637C7.43066 11.5495 7.96842 11.2396 8.42871 10.834C8.889 10.4284 9.24219 9.96354 9.48828 9.43945C9.73893 8.91536 9.86426 8.37305 9.86426 7.8125V7.64844H7.21191V6.5957H13.8154V7.64844H11.1904V7.82617ZM30.0986 13.0625H18.9014V11.9961H23.8369V10.2051H25.1221V11.9961H30.0986V13.0625ZM25.1357 6.62305C25.1357 7.13346 25.3271 7.61654 25.71 8.07227C26.0928 8.52799 26.61 8.91309 27.2617 9.22754C27.9134 9.54199 28.6312 9.74935 29.415 9.84961L28.9092 10.875C27.9202 10.7201 27.027 10.4124 26.2295 9.95215C25.4365 9.49186 24.8509 8.93132 24.4727 8.27051C24.0898 8.93587 23.4997 9.4987 22.7021 9.95898C21.9092 10.4147 21.016 10.7201 20.0225 10.875L19.5439 9.84961C20.3187 9.74935 21.0319 9.54199 21.6836 9.22754C22.3398 8.91309 22.8594 8.52799 23.2422 8.07227C23.625 7.61198 23.8187 7.12891 23.8232 6.62305V6.10352H25.1357V6.62305ZM28.7041 18.1621H27.3916V15.168H20.1455V14.1426H28.7041V18.1621ZM42.1709 12.6387H37.2217V13.8145C38.3564 13.8783 39.236 14.097 39.8604 14.4707C40.4893 14.8398 40.8037 15.3411 40.8037 15.9746C40.8037 16.4349 40.6351 16.8268 40.2979 17.1504C39.9606 17.4785 39.4753 17.7246 38.8418 17.8887C38.2129 18.0573 37.4587 18.1393 36.5791 18.1348C35.6904 18.1393 34.9271 18.0573 34.2891 17.8887C33.6556 17.7246 33.1702 17.4785 32.833 17.1504C32.4958 16.8268 32.3271 16.4349 32.3271 15.9746C32.3271 15.3411 32.6416 14.8398 33.2705 14.4707C33.8994 14.097 34.7881 13.8783 35.9365 13.8145V12.6387H31.001V11.5859H42.1709V12.6387ZM36.5791 14.7988C35.6403 14.7988 34.9157 14.9014 34.4053 15.1064C33.8949 15.3115 33.6396 15.6009 33.6396 15.9746C33.6396 16.3438 33.8971 16.6309 34.4121 16.8359C34.9271 17.041 35.6494 17.1413 36.5791 17.1367C37.1898 17.1413 37.7139 17.098 38.1514 17.0068C38.5934 16.9157 38.9284 16.7835 39.1562 16.6104C39.3887 16.4326 39.5049 16.2207 39.5049 15.9746C39.5049 15.6009 39.2474 15.3115 38.7324 15.1064C38.222 14.9014 37.5042 14.7988 36.5791 14.7988ZM41.1729 7.51172H37.4541C37.5133 7.89909 37.7298 8.26367 38.1035 8.60547C38.4818 8.94727 38.974 9.23438 39.5801 9.4668C40.1908 9.69466 40.863 9.84505 41.5967 9.91797L41.1318 10.9434C40.4255 10.8613 39.7669 10.7109 39.1562 10.4922C38.5501 10.2689 38.0238 9.98861 37.5771 9.65137C37.1351 9.31413 36.8047 8.93132 36.5859 8.50293C36.3626 8.93132 36.0277 9.31413 35.5811 9.65137C35.139 9.98861 34.6149 10.2689 34.0088 10.4922C33.4027 10.7109 32.7464 10.8613 32.04 10.9434L31.5889 9.91797C32.3135 9.84505 32.9766 9.69466 33.5781 9.4668C34.1842 9.23438 34.6742 8.94727 35.0479 8.60547C35.4261 8.26367 35.6449 7.89909 35.7041 7.51172H32.0264V6.47266H41.1729V7.51172Z" fill="#043ADA"/>
</svg>
