<svg width="22" height="22" viewBox="0 0 22 22" fill="none" xmlns="http://www.w3.org/2000/svg">
<rect x="0.434785" y="0.434846" width="20.8696" height="20.8696" rx="1.30435" fill="white"/>
<rect x="0.434785" y="0.434846" width="20.8696" height="20.8696" rx="1.30435" stroke="#3F3F3F" stroke-width="0.869565"/>
<path d="M11.2398 16.5008C10.4144 16.5008 9.66542 16.325 8.99286 15.9734C8.32031 15.6168 7.77768 15.0359 7.36497 14.2309C6.95227 13.4208 6.74592 12.3686 6.74592 11.0745C6.74592 9.84654 6.93189 8.78676 7.30383 7.89512C7.67578 6.99838 8.20567 6.31308 8.89351 5.83924C9.58135 5.36539 10.3838 5.12847 11.3009 5.12847C12.0245 5.12847 12.6741 5.26859 13.2498 5.54882C13.8256 5.82905 14.2867 6.21373 14.6331 6.70286C14.9847 7.19199 15.1987 7.74226 15.2751 8.35367H13.0129C12.9212 7.96135 12.7225 7.65564 12.4168 7.43656C12.1162 7.21237 11.7442 7.10028 11.3009 7.10028C10.5622 7.10028 9.99405 7.41363 9.59663 8.04033C9.20431 8.66193 9.00305 9.52555 8.99286 10.6312H9.09986C9.34952 10.1472 9.7291 9.76757 10.2386 9.49243C10.7481 9.2122 11.3111 9.07209 11.9276 9.07209C12.5849 9.07209 13.1759 9.22749 13.7007 9.53829C14.2306 9.84399 14.6459 10.2694 14.9465 10.8146C15.2471 11.3547 15.3974 11.9661 15.3974 12.6489C15.3974 13.3876 15.2216 14.05 14.8701 14.6359C14.5236 15.2168 14.0345 15.6728 13.4027 16.004C12.7709 16.3352 12.0499 16.5008 11.2398 16.5008ZM11.1939 14.6818C11.5659 14.6818 11.9022 14.5952 12.2028 14.4219C12.5034 14.2487 12.7378 14.0118 12.9059 13.7112C13.0791 13.4106 13.1658 13.0768 13.1658 12.71C13.1658 12.3482 13.0817 12.0171 12.9135 11.7164C12.7505 11.4158 12.5212 11.1789 12.2257 11.0057C11.9302 10.8274 11.5965 10.7382 11.2245 10.7382C10.8526 10.7382 10.5138 10.8274 10.208 11.0057C9.90743 11.1789 9.66796 11.4184 9.48963 11.7241C9.3164 12.0247 9.22724 12.3533 9.22214 12.71C9.22724 13.0717 9.31385 13.4029 9.48199 13.7035C9.65523 14.0042 9.89215 14.2436 10.1928 14.4219C10.4934 14.5952 10.8271 14.6818 11.1939 14.6818Z" fill="#3F3F3F"/>
</svg>
