<svg width="22" height="22" viewBox="0 0 22 22" fill="none" xmlns="http://www.w3.org/2000/svg">
<circle cx="10.6521" cy="10.6522" r="10.2174" fill="white" stroke="#3F3F3F" stroke-width="0.869565"/>
<path d="M6.66823 15.9131H4.36015V7.03231H4.29901L1.76164 8.62199V6.58904L4.49772 4.84651H6.66823V15.9131ZM13.1605 16.0659C12.3605 16.0659 11.6421 15.9284 11.0052 15.6532C10.3734 15.373 9.87412 14.9858 9.50727 14.4916C9.14552 13.9922 8.957 13.4267 8.94171 12.7949H11.2651C11.2804 13.0649 11.3721 13.3044 11.5402 13.5133C11.7084 13.7222 11.9351 13.8852 12.2204 14.0024C12.5057 14.1145 12.8242 14.1706 13.1757 14.1706C13.5375 14.1706 13.861 14.1069 14.1464 13.9795C14.4368 13.847 14.661 13.6661 14.8189 13.4369C14.982 13.2076 15.0609 12.9477 15.0558 12.6573C15.0609 12.3567 14.9769 12.0892 14.8036 11.8548C14.6355 11.6205 14.3935 11.4396 14.0776 11.3122C13.7617 11.1797 13.3897 11.1135 12.9618 11.1135H11.9376V9.41682H12.9618C13.3184 9.41682 13.6369 9.35568 13.9171 9.2334C14.1973 9.11112 14.4164 8.93788 14.5744 8.7137C14.7323 8.48951 14.8113 8.23476 14.8113 7.94943C14.8113 7.6692 14.7425 7.42209 14.6049 7.20809C14.4725 6.9941 14.2839 6.82851 14.0394 6.71132C13.7948 6.58904 13.512 6.5279 13.191 6.5279C12.8649 6.5279 12.5643 6.58649 12.2892 6.70368C12.0192 6.81577 11.8001 6.97881 11.6319 7.19281C11.4689 7.40171 11.3823 7.64372 11.3721 7.91886H9.17099C9.18118 7.29216 9.36206 6.73425 9.71362 6.24512C10.0652 5.75599 10.5441 5.3764 11.1504 5.10636C11.7619 4.83122 12.4421 4.69366 13.191 4.69366C13.9451 4.69366 14.6126 4.83122 15.1934 5.10636C15.7793 5.3764 16.2328 5.75089 16.5538 6.22983C16.8748 6.70368 17.0327 7.23102 17.0277 7.81186C17.0327 8.21438 16.9461 8.58122 16.7678 8.91241C16.5946 9.23849 16.3475 9.50853 16.0265 9.72253C15.7106 9.93652 15.3463 10.0792 14.9336 10.1505V10.2422C15.4685 10.3085 15.9246 10.4562 16.3016 10.6855C16.6786 10.9148 16.964 11.2128 17.1576 11.5797C17.3512 11.9414 17.4454 12.3516 17.4404 12.8102C17.4454 13.4318 17.2646 13.9922 16.8977 14.4916C16.5309 14.9858 16.0214 15.373 15.3692 15.6532C14.717 15.9284 13.9808 16.0659 13.1605 16.0659Z" fill="#3F3F3F"/>
</svg>
