<svg width="49" height="49" viewBox="0 0 49 49" fill="none" xmlns="http://www.w3.org/2000/svg">
<rect x="7.40234" y="34.9795" width="6.17271" height="7.71589" rx="1.54319" fill="#161616"/>
<rect x="16.6641" y="33.4375" width="6.17271" height="9.25907" rx="1.54319" fill="#161616"/>
<rect x="25.9277" y="28.8062" width="6.17271" height="13.8886" rx="1.54319" fill="#161616"/>
<rect x="35.1855" y="24.1763" width="6.17271" height="18.5181" rx="1.54319" fill="#161616"/>
<path d="M24.6309 12.5225L24.249 12.9043L19.4609 17.6982L24.6309 22.8682L22.8672 24.6318L17.6973 19.4619L12.9033 24.25L12.5215 24.6318L10.7578 22.8682L11.1396 22.4863L15.9268 17.6973L11.1396 12.9043L10.7578 12.5225L12.5215 10.7588L12.9033 11.1406L17.6963 15.9277L22.4854 11.1406L22.8672 10.7588L24.6309 12.5225Z" fill="#161616" stroke="#161616" stroke-width="1.08023"/>
</svg>
