<svg width="105" height="105" viewBox="0 0 105 105" fill="none" xmlns="http://www.w3.org/2000/svg">
<rect x="15.752" y="74.4404" width="13.1362" height="16.4203" rx="3.28407" fill="#161616"/>
<rect x="35.4648" y="71.1587" width="13.1362" height="19.7043" rx="3.28407" fill="#161616"/>
<rect x="55.1758" y="61.3027" width="13.1362" height="29.5565" rx="3.28407" fill="#161616"/>
<rect x="74.877" y="51.4497" width="13.1362" height="39.4086" rx="3.28407" fill="#161616"/>
<path d="M49.4746 23.7085L51.6025 25.8364L52.415 26.6479L51.6035 27.4614L41.4131 37.6636L52.415 48.6655L48.6621 52.4185L37.6602 41.4165L27.458 51.6069L26.6445 52.4185L25.833 51.606L23.7051 49.478L22.8916 48.6655L23.7051 47.853L33.8936 37.6636L23.7041 27.4614L22.8926 26.6479L23.7051 25.8364L25.833 23.7085L26.6445 22.896L27.458 23.7075L37.6602 33.897L47.8496 23.7085L48.6621 22.895L49.4746 23.7085Z" fill="#161616" stroke="#161616" stroke-width="2.29885"/>
</svg>
