<svg width="24" height="24" viewBox="0 0 24 24" fill="none" xmlns="http://www.w3.org/2000/svg">
<path d="M11.6123 1.93555C16.9539 1.93555 21.2899 6.2707 21.29 11.6123C21.29 16.9541 16.9541 21.29 11.6123 21.29C6.2707 21.2899 1.93555 16.9539 1.93555 11.6123C1.93573 6.27081 6.27081 1.93573 11.6123 1.93555ZM11.6123 3.87109C7.34497 3.87127 3.87127 7.34497 3.87109 11.6123C3.87109 15.8798 7.34486 19.3543 11.6123 19.3545C15.8799 19.3545 19.3545 15.8799 19.3545 11.6123C19.3543 7.34486 15.8798 3.87109 11.6123 3.87109ZM12.5801 16.4512H10.6445V9.67676H12.5801V16.4512ZM12.5801 8.70996H10.6445V6.77441H12.5801V8.70996Z" fill="#757575"/>
</svg>
