<svg width="24" height="24" viewBox="0 0 24 24" fill="none" xmlns="http://www.w3.org/2000/svg">
<g clip-path="url(#clip0_1501_95404)">
<path d="M9.60085 3.39904C10.495 1.85071 12.7301 1.85071 13.6243 3.39904L22.174 18.2076C23.0672 19.756 21.9503 21.6915 20.162 21.6915H3.06267C1.27346 21.6914 0.15757 19.7559 1.05071 18.2076L9.60085 3.39904ZM11.9483 4.36675C11.7991 4.1085 11.4261 4.10855 11.2769 4.36675L2.72719 19.1753C2.57799 19.4348 2.76493 19.756 3.06267 19.7561H20.162C20.4597 19.7561 20.6469 19.4338 20.4975 19.1749V19.1744L11.9483 4.36675Z" fill="#757575"/>
<path fill-rule="evenodd" clip-rule="evenodd" d="M11.6122 18.7411C11.4852 18.7411 11.3593 18.7111 11.2419 18.6527C11.1245 18.5944 11.0178 18.5088 10.928 18.401C10.8381 18.2932 10.7668 18.1652 10.7182 18.0243C10.6696 17.8834 10.6445 17.7324 10.6445 17.5799C10.6445 17.4274 10.6696 17.2764 10.7182 17.1355C10.7668 16.9946 10.8381 16.8666 10.928 16.7588C11.0178 16.6509 11.1245 16.5654 11.2419 16.507C11.3593 16.4487 11.4852 16.4186 11.6122 16.4186C11.8689 16.4186 12.115 16.541 12.2965 16.7588C12.478 16.9765 12.5799 17.2719 12.5799 17.5799C12.5799 17.8879 12.478 18.1832 12.2965 18.401C12.115 18.6188 11.8689 18.7411 11.6122 18.7411ZM10.8058 9.0805C10.8058 8.82385 10.8908 8.57771 11.042 8.39623C11.1932 8.21475 11.3984 8.11279 11.6122 8.11279C11.8261 8.11279 12.0312 8.21475 12.1825 8.39623C12.3337 8.57771 12.4187 8.82385 12.4187 9.0805V13.919C12.4187 14.1757 12.3337 14.4218 12.1825 14.6033C12.0312 14.7848 11.8261 14.8868 11.6122 14.8868C11.3984 14.8868 11.1932 14.7848 11.042 14.6033C10.8908 14.4218 10.8058 14.1757 10.8058 13.919V9.0805Z" fill="#757575"/>
</g>
<defs>
<clipPath id="clip0_1501_95404">
<rect width="23.225" height="23.225" fill="white"/>
</clipPath>
</defs>
</svg>
