<svg width="20" height="23" viewBox="0 0 20 23" fill="none" xmlns="http://www.w3.org/2000/svg">
<circle cx="9.66433" cy="9.66434" r="9.26986" fill="white" stroke="#3F3F3F" stroke-width="0.788924"/>
<path d="M5.90999 13.0386L9.51562 9.72417C9.87156 9.3821 10.1466 9.09781 10.3408 8.8713C10.5395 8.64479 10.6921 8.4206 10.7984 8.19871C10.9047 7.97221 10.9579 7.73183 10.9579 7.47759C10.9579 7.18636 10.8885 6.93212 10.7499 6.71486C10.6158 6.49759 10.4263 6.33118 10.1813 6.21562C9.9409 6.09543 9.66816 6.03533 9.36307 6.03533C8.89157 6.03533 8.51482 6.17632 8.23285 6.4583C7.95087 6.73566 7.80988 7.1124 7.80988 7.58853H5.82678C5.82216 6.94136 5.96777 6.3751 6.26362 5.88972C6.56409 5.40435 6.98474 5.02992 7.52559 4.76643C8.06643 4.50294 8.68817 4.3712 9.39081 4.3712C10.0981 4.3712 10.7221 4.49832 11.263 4.75256C11.8038 5.00218 12.2222 5.35119 12.518 5.79958C12.8185 6.24797 12.9687 6.76108 12.9687 7.33891C12.9687 7.73183 12.8924 8.11088 12.7399 8.47607C12.5873 8.83663 12.3215 9.24111 11.9425 9.6895C11.5681 10.1333 11.0365 10.6672 10.3477 11.2912L8.82223 12.7751V12.8306H13.1074V14.5502H5.92385L5.90999 13.0386Z" fill="#3F3F3F"/>
</svg>
