<svg width="20" height="23" viewBox="0 0 20 23" fill="none" xmlns="http://www.w3.org/2000/svg">
<circle cx="9.66433" cy="9.66434" r="9.26986" fill="white" stroke="#3F3F3F" stroke-width="0.788924"/>
<path d="M9.43934 14.6888C8.7136 14.6888 8.06181 14.564 7.48398 14.3144C6.91078 14.0602 6.45777 13.7089 6.12494 13.2605C5.79673 12.8074 5.6257 12.2943 5.61183 11.7211H7.71974C7.7336 11.9661 7.81681 12.1834 7.96936 12.3729C8.1219 12.5625 8.32761 12.7104 8.58647 12.8167C8.84534 12.9184 9.13425 12.9692 9.45321 12.9692C9.78142 12.9692 10.075 12.9115 10.3338 12.7959C10.5973 12.6757 10.8007 12.5116 10.944 12.3036C11.0919 12.0956 11.1636 11.8598 11.159 11.5963C11.1636 11.3236 11.0873 11.0809 10.9301 10.8683C10.7776 10.6556 10.558 10.4915 10.2714 10.376C9.98481 10.2558 9.64736 10.1957 9.25906 10.1957H8.32992V8.65635H9.25906C9.58265 8.65635 9.87156 8.60088 10.1258 8.48994C10.38 8.37899 10.5788 8.22183 10.7221 8.01843C10.8654 7.81504 10.9371 7.58391 10.9371 7.32504C10.9371 7.0708 10.8747 6.8466 10.7499 6.65245C10.6297 6.4583 10.4586 6.30807 10.2367 6.20175C10.0149 6.09081 9.7583 6.03533 9.46708 6.03533C9.17123 6.03533 8.8985 6.08849 8.64888 6.19481C8.40388 6.29651 8.20511 6.44443 8.05256 6.63858C7.90464 6.82811 7.82606 7.04768 7.81681 7.29731H5.81985C5.82909 6.72872 5.99319 6.22255 6.31215 5.77878C6.63111 5.33501 7.06564 4.99063 7.61573 4.74563C8.17044 4.49601 8.78756 4.3712 9.46708 4.3712C10.1512 4.3712 10.7568 4.49601 11.2838 4.74563C11.8154 4.99063 12.2268 5.33039 12.518 5.76491C12.8092 6.19481 12.9525 6.67325 12.9479 7.20023C12.9525 7.56542 12.8739 7.89824 12.7121 8.19871C12.555 8.49456 12.3308 8.73956 12.0396 8.93371C11.753 9.12786 11.4224 9.25729 11.048 9.32201V9.40521C11.5334 9.46531 11.9471 9.59936 12.2892 9.80738C12.6313 10.0154 12.8901 10.2858 13.0658 10.6186C13.2414 10.9469 13.327 11.319 13.3223 11.735C13.327 12.299 13.1629 12.8074 12.83 13.2605C12.4972 13.7089 12.0349 14.0602 11.4432 14.3144C10.8516 14.564 10.1836 14.6888 9.43934 14.6888Z" fill="#3F3F3F"/>
</svg>
