<svg width="40" height="40" viewBox="0 0 40 40" fill="none" xmlns="http://www.w3.org/2000/svg">
<path fill-rule="evenodd" clip-rule="evenodd" d="M20.0007 6.66683C27.3507 6.66683 33.334 12.6502 33.334 20.0002C33.334 27.3502 27.3507 33.3335 20.0007 33.3335C12.6507 33.3335 6.66732 27.3502 6.66732 20.0002C6.66732 12.6502 12.6507 6.66683 20.0007 6.66683ZM20.0007 3.3335C10.8007 3.3335 3.33398 10.8002 3.33398 20.0002C3.33398 29.2002 10.8007 36.6668 20.0007 36.6668C29.2007 36.6668 36.6673 29.2002 36.6673 20.0002C36.6673 10.8002 29.2007 3.3335 20.0007 3.3335ZM20.0007 10.0002C16.3173 10.0002 13.334 12.9835 13.334 16.6668V18.3335H16.6673V16.6668C16.6673 14.8335 18.1673 13.3335 20.0007 13.3335C21.834 13.3335 23.334 14.8335 23.334 16.6668C23.334 18.4502 22.4007 19.1168 20.8673 20.0668C19.734 20.7502 18.334 21.6002 18.334 23.3335V25.0002H21.6673V23.5335C21.8673 23.3668 22.3007 23.1002 22.6007 22.9168L22.6566 22.8818C24.1791 21.9287 26.6673 20.3711 26.6673 16.6668C26.6673 12.9835 23.684 10.0002 20.0007 10.0002ZM18.334 30.0002V26.6668H21.6673V30.0002H18.334Z" fill="#A2A2A2"/>
</svg>
