<svg width="22" height="22" viewBox="0 0 22 22" fill="none" xmlns="http://www.w3.org/2000/svg">
<rect x="0.434785" y="0.434846" width="20.8696" height="20.8696" rx="1.30435" fill="white"/>
<rect x="0.434785" y="0.434846" width="20.8696" height="20.8696" rx="1.30435" stroke="#3F3F3F" stroke-width="0.869565"/>
<path d="M7.15232 16.3479H4.84423V7.46713H4.78309L2.24573 9.0568V7.02385L4.9818 5.28132H7.15232V16.3479ZM13.8433 16.5008C12.921 16.5008 12.1262 16.2791 11.4587 15.8358C10.7964 15.3875 10.2869 14.7378 9.93021 13.887C9.57355 13.0361 9.39523 12.012 9.39523 10.8146C9.39523 9.61726 9.57355 8.59314 9.93021 7.74226C10.2869 6.89138 10.7964 6.2443 11.4587 5.80103C12.1262 5.35266 12.921 5.12847 13.8433 5.12847C14.7604 5.12847 15.5527 5.35266 16.2201 5.80103C16.8876 6.2443 17.3996 6.89393 17.7563 7.7499C18.113 8.60079 18.2913 9.62236 18.2913 10.8146C18.2913 12.0171 18.113 13.0437 17.7563 13.8946C17.3996 14.7455 16.8876 15.3926 16.2201 15.8358C15.5578 16.2791 14.7655 16.5008 13.8433 16.5008ZM13.8433 14.6054C14.2712 14.6054 14.6406 14.4678 14.9514 14.1927C15.2673 13.9175 15.5094 13.5023 15.6775 12.9469C15.8507 12.3915 15.9373 11.7063 15.9373 10.891C15.9373 9.62236 15.7539 8.65938 15.3871 8.00211C15.0202 7.33975 14.5056 7.00857 13.8433 7.00857C13.1809 7.00857 12.6663 7.33975 12.2994 8.00211C11.9326 8.65938 11.7492 9.62236 11.7492 10.891C11.7492 11.7063 11.8332 12.3915 12.0014 12.9469C12.1746 13.5023 12.4166 13.9175 12.7274 14.1927C13.0433 14.4678 13.4153 14.6054 13.8433 14.6054Z" fill="#3F3F3F"/>
</svg>
