<svg width="79" height="52" viewBox="0 0 79 52" fill="none" xmlns="http://www.w3.org/2000/svg">
<rect x="0.261191" y="0.261191" width="77.8351" height="50.7204" rx="3.33289" fill="white"/>
<rect x="0.261191" y="0.261191" width="77.8351" height="50.7204" rx="3.33289" stroke="#E9E9E9" stroke-width="0.522383"/>
<path d="M39.3048 8.05678C39.4964 8.06539 39.6955 8.12738 39.8312 8.27088C39.9646 8.41438 40.0479 8.59003 40.0479 8.78921V21.3961C40.0479 21.5838 39.9646 21.7812 39.8306 21.915C39.7014 22.0424 39.49 22.1377 39.3042 22.1291C39.1126 22.1205 38.9135 22.0585 38.7778 21.915C38.6456 21.7715 38.5606 21.5941 38.5606 21.3961V8.78921C38.5606 8.60151 38.6439 8.40405 38.7778 8.27031C38.9071 8.14288 39.1185 8.04759 39.3042 8.0562L39.3048 8.05678Z" fill="#3F3F3F"/>
<path d="M22.451 35.9812H13.246V35.1035H22.451V35.9812ZM21.382 34.2257H14.3938V30.726H21.3144V31.6038H15.4516V33.3593H21.382V34.2257ZM17.8372 36.7689C18.5612 36.7689 19.182 36.8402 19.6996 36.9828C20.221 37.1253 20.6205 37.3353 20.8981 37.6129C21.1757 37.8867 21.3144 38.2168 21.3144 38.6032C21.3144 38.9895 21.1757 39.3196 20.8981 39.5935C20.6205 39.8673 20.221 40.0755 19.6996 40.218C19.1782 40.3606 18.5574 40.4299 17.8372 40.4262C17.1133 40.4299 16.4888 40.3606 15.9636 40.218C15.4385 40.0755 15.0352 39.8673 14.7539 39.5935C14.4763 39.3196 14.3375 38.9895 14.3375 38.6032C14.3375 38.2168 14.4763 37.8867 14.7539 37.6129C15.0352 37.3353 15.4366 37.1253 15.958 36.9828C16.4831 36.8402 17.1095 36.7689 17.8372 36.7689ZM17.8372 37.5904C17.0645 37.5979 16.4681 37.6898 16.048 37.8661C15.6279 38.0387 15.4178 38.2844 15.4178 38.6032C15.4178 38.922 15.6279 39.1696 16.048 39.3459C16.4681 39.5184 17.0645 39.6047 17.8372 39.6047C18.5987 39.6047 19.1895 39.5184 19.6096 39.3459C20.0335 39.1696 20.2454 38.922 20.2454 38.6032C20.2454 38.2844 20.0353 38.0387 19.6152 37.8661C19.1951 37.6898 18.6025 37.5979 17.8372 37.5904ZM31.1271 33.348H32.59V34.237H31.1271V37.6917H30.0468V30.3659H31.1271V33.348ZM28.3926 31.1312C28.3926 32.0014 28.2032 32.7947 27.8244 33.5112C27.4455 34.2276 26.8997 34.8465 26.187 35.3679C25.4781 35.8856 24.6304 36.2926 23.6438 36.5889L23.1937 35.7337C23.9777 35.4973 24.6585 35.1954 25.2361 34.8278C25.8176 34.4602 26.2771 34.0382 26.6146 33.5618C26.956 33.0854 27.1604 32.5715 27.2279 32.0201H23.6213V31.1312H28.3926ZM31.5435 40.2349H24.7241V36.9377H25.8044V39.3684H31.5435V40.2349ZM38.5092 31.0299C38.5092 31.4012 38.4716 31.7651 38.3966 32.1214H40.5009V30.3772H41.57V36.3751H40.5009V35.1147H37.9578V34.2483H40.5009V32.9767H38.1265C37.789 33.7644 37.2432 34.4377 36.4892 34.9966C35.739 35.5555 34.8144 35.9812 33.7153 36.2738L33.3102 35.4298C34.1054 35.216 34.7938 34.9347 35.3752 34.5858C35.9603 34.237 36.4217 33.8356 36.7593 33.3818C37.0969 32.9241 37.2976 32.429 37.3613 31.8964H33.8391V31.0299H38.5092ZM41.57 40.4262H40.5009V37.6579H34.7394V36.814H41.57V40.4262ZM49.9873 31.8739V32.0314C49.9798 32.5115 49.9629 32.9635 49.9367 33.3874C49.9141 33.8113 49.8523 34.342 49.751 34.9797C49.6497 35.6136 49.4959 36.3151 49.2896 37.084L48.2206 36.9152C48.4869 35.9812 48.6669 35.1429 48.7607 34.4002C48.8582 33.6575 48.9126 32.9579 48.9239 32.3015H46.6339V31.435H49.9873V31.8739ZM55.13 38.9745H45.9362V38.0856H55.13V38.9745ZM54.1172 32.1777C54.1172 32.7216 54.1097 33.1998 54.0947 33.6125C54.0834 34.0251 54.0459 34.5277 53.9821 35.1204C53.9184 35.7093 53.8171 36.3563 53.6783 37.0615L52.598 36.949C52.7893 36.0337 52.9112 35.2254 52.9637 34.524C53.02 33.8225 53.0519 33.0817 53.0594 32.3015H50.6962V31.435H54.1172V32.1777ZM64.2787 40.4487H63.1984V30.3659H64.2787V40.4487ZM61.2741 31.4462C61.2741 33.0067 60.9009 34.3945 60.1545 35.6099C59.4117 36.8215 58.2133 37.823 56.5591 38.6144L55.9964 37.748C57.3206 37.1178 58.324 36.3507 59.0066 35.4467C59.6931 34.5427 60.0888 33.4943 60.1938 32.3015H56.4803V31.4462H61.2741Z" fill="#161616"/>
</svg>
