<svg width="46" height="46" viewBox="0 0 46 46" fill="none" xmlns="http://www.w3.org/2000/svg">
<g opacity="0.8" filter="url(#filter0_d_1497_123895)">
<rect x="3" y="2" width="40" height="40" rx="4" fill="white"/>
<rect x="3.25" y="2.25" width="39.5" height="39.5" rx="3.75" stroke="#E9E9E9" stroke-width="0.5"/>
<path fill-rule="evenodd" clip-rule="evenodd" d="M31.2361 16.6858C31.982 16.3394 32.5 15.5771 32.5 14.6923C32.5 13.4815 31.53 12.5 30.3333 12.5C29.1367 12.5 28.1667 13.4815 28.1667 14.6923C28.1667 15.5771 28.6847 16.3394 29.4306 16.6858V25.2366C29.4306 25.9634 29.1452 26.6604 28.6373 27.1743C27.5796 28.2445 25.8648 28.2445 24.8071 27.1743C24.2992 26.6604 24.0139 25.9634 24.0139 25.2366V18.2468C24.0139 17.1324 23.5764 16.0636 22.7976 15.2756C21.1758 13.6346 18.5464 13.6346 16.9247 15.2756C16.1459 16.0636 15.7083 17.1324 15.7083 18.2468V24.3074C14.1508 24.713 13 26.1436 13 27.8462C13 29.8641 14.6167 31.5 16.6111 31.5C18.6055 31.5 20.2222 29.8641 20.2222 27.8462C20.2222 26.1436 19.0714 24.713 17.5139 24.3074V18.2468C17.5139 17.6169 17.7612 17.0128 18.2014 16.5674C19.118 15.6399 20.6042 15.6399 21.5208 16.5674C21.961 17.0128 22.2083 17.6169 22.2083 18.2468V25.2366C22.2083 26.4479 22.6839 27.6096 23.5304 28.4661C25.2932 30.2498 28.1512 30.2498 29.914 28.4661C30.7605 27.6096 31.2361 26.4479 31.2361 25.2366V16.6858ZM31.2361 16.6858V16.1538H29.4306V16.6858C29.7054 16.8135 30.0111 16.8846 30.3333 16.8846C30.6555 16.8846 30.9613 16.8135 31.2361 16.6858ZM30.6944 14.6923C30.6944 14.8941 30.5328 15.0577 30.3333 15.0577C30.1339 15.0577 29.9722 14.8941 29.9722 14.6923C29.9722 14.4905 30.1339 14.3269 30.3333 14.3269C30.5328 14.3269 30.6944 14.4905 30.6944 14.6923ZM18.4167 27.8462C18.4167 28.8551 17.6083 29.6731 16.6111 29.6731C15.6139 29.6731 14.8056 28.8551 14.8056 27.8462C14.8056 26.8372 15.6139 26.0192 16.6111 26.0192C17.6083 26.0192 18.4167 26.8372 18.4167 27.8462Z" fill="#757575"/>
<path d="M30.6944 14.6923C30.6944 14.8941 30.5328 15.0577 30.3333 15.0577C30.1339 15.0577 29.9722 14.8941 29.9722 14.6923C29.9722 14.4905 30.1339 14.3269 30.3333 14.3269C30.5328 14.3269 30.6944 14.4905 30.6944 14.6923Z" fill="#757575"/>
<path d="M31.2361 16.1538H29.4306V16.6858C29.7054 16.8135 30.0111 16.8846 30.3333 16.8846C30.6555 16.8846 30.9613 16.8135 31.2361 16.6858V16.1538Z" fill="#757575"/>
</g>
<defs>
<filter id="filter0_d_1497_123895" x="0" y="0" width="46" height="46" filterUnits="userSpaceOnUse" color-interpolation-filters="sRGB">
<feFlood flood-opacity="0" result="BackgroundImageFix"/>
<feColorMatrix in="SourceAlpha" type="matrix" values="0 0 0 0 0 0 0 0 0 0 0 0 0 0 0 0 0 0 127 0" result="hardAlpha"/>
<feOffset dy="1"/>
<feGaussianBlur stdDeviation="1.5"/>
<feComposite in2="hardAlpha" operator="out"/>
<feColorMatrix type="matrix" values="0 0 0 0 0 0 0 0 0 0 0 0 0 0 0 0 0 0 0.05 0"/>
<feBlend mode="normal" in2="BackgroundImageFix" result="effect1_dropShadow_1497_123895"/>
<feBlend mode="normal" in="SourceGraphic" in2="effect1_dropShadow_1497_123895" result="shape"/>
</filter>
</defs>
</svg>
