<svg width="50" height="21" viewBox="0 0 50 21" fill="none" xmlns="http://www.w3.org/2000/svg">
<rect width="49.8684" height="20.5789" rx="1.64474" fill="#E9E9E9"/>
<path d="M13.7921 10.6579H12.7352V8.43172H10.8463V7.55474H12.7352V5.17116H13.7921V10.6579ZM8.2941 12.2657H12.7352V11.1076H13.7921V15.1215H7.23723V11.1076H8.2941V12.2657ZM12.7352 14.2558V13.0977H8.2941V14.2558H12.7352ZM9.01368 6.74522C9.01368 7.16123 9.11112 7.56973 9.306 7.97075C9.50089 8.37176 9.78197 8.72967 10.1493 9.04448C10.5165 9.3593 10.9475 9.60103 11.4422 9.76968L10.8913 10.6017C10.3329 10.4068 9.84755 10.1182 9.4353 9.73595C9.02679 9.35367 8.71011 8.90956 8.48524 8.40361C8.26037 8.96953 7.93057 9.46423 7.49583 9.88773C7.06483 10.3075 6.55514 10.6204 5.96674 10.8265L5.41581 9.9833C5.92176 9.80715 6.364 9.55231 6.74252 9.21875C7.12105 8.8852 7.4115 8.50293 7.61388 8.07194C7.82001 7.64094 7.92307 7.19496 7.92307 6.73398V6.59906H5.74187V5.73333H11.1724V6.59906H9.01368V6.74522ZM24.5632 11.0514H15.3549V10.1744H19.4137V8.70156H20.4706V10.1744H24.5632V11.0514ZM20.4819 5.75581C20.4819 6.17556 20.6393 6.57283 20.9541 6.9476C21.2689 7.32238 21.6943 7.63907 22.2302 7.89766C22.7661 8.15626 23.3564 8.32678 24.001 8.40923L23.585 9.25248C22.7717 9.12506 22.0372 8.87208 21.3813 8.49356C20.7292 8.11503 20.2476 7.65406 19.9366 7.11063C19.6217 7.65781 19.1364 8.12066 18.4805 8.49918C17.8284 8.87396 17.0939 9.12506 16.2769 9.25248L15.8833 8.40923C16.5205 8.32678 17.107 8.15626 17.6429 7.89766C18.1826 7.63907 18.6098 7.32238 18.9247 6.9476C19.2395 6.56908 19.3988 6.17181 19.4025 5.75581V5.32857H20.4819V5.75581ZM23.4164 15.2452H22.337V12.7829H16.378V11.9396H23.4164V15.2452ZM27.5651 6.20554H32.2311V5.32857H33.2992V8.66783H26.5083V5.32857H27.5651V6.20554ZM32.2311 7.85831V6.99258H27.5651V7.85831H32.2311ZM34.491 10.2644H30.421V11.1301H33.333V13.48H27.464V14.3232H33.6141V15.144H26.4183V12.7154H32.2761V11.9284H26.4071V11.1301H29.3528V10.2644H25.3052V9.39865H34.491V10.2644ZM43.1034 9.18502H44.6662V10.0732H43.1034V15.2339H42.0353V5.17116H43.1034V9.18502ZM40.4725 6.22803C40.465 7.76462 40.0921 9.1438 39.3538 10.3656C38.6155 11.5873 37.4518 12.5917 35.8627 13.3788L35.2668 12.5468C36.5261 11.9171 37.4986 11.1489 38.1845 10.2419C38.8741 9.33493 39.2732 8.29305 39.3819 7.11625H35.7728V6.22803H40.4725Z" fill="#161616"/>
</svg>
