<svg width="40" height="40" viewBox="0 0 40 40" fill="none" xmlns="http://www.w3.org/2000/svg">
<rect width="40" height="40" rx="4.8" fill="#161616"/>
<path d="M20.3125 3.60547C28.2105 3.60547 34.5488 10.2527 34.5488 18.3174V18.3232C34.5247 23.7766 31.0981 28.3118 27.8252 31.3359C26.1654 32.8695 24.4803 34.0755 23.1465 34.8838C22.4819 35.2865 21.883 35.6036 21.4014 35.8145C21.1648 35.918 20.9232 36.0115 20.6973 36.0723C20.5859 36.1022 20.4418 36.1342 20.2832 36.1475C20.1616 36.1576 19.8476 36.1758 19.5049 36.0264L19.4883 36.0195L19.4727 36.0117C19.1081 35.8416 14.374 33.5889 10.6475 29.3906L10.6309 29.3721L10.6143 29.3525L9.56934 28.0859L9.56152 28.0762C1.87782 18.5858 7.73973 3.75542 20.2959 3.60547H20.3125Z" fill="white" stroke="white" stroke-width="2.78991"/>
<path d="M13.049 26.25C12.7891 26.25 12.6138 25.9843 12.7162 25.7454L19.3667 10.2195C19.4238 10.0863 19.5547 10 19.6995 10H21.5505C21.6953 10 21.8262 10.0863 21.8833 10.2195L28.5339 25.7454C28.6362 25.9843 28.4609 26.25 28.201 26.25H26.9333C26.7882 26.25 26.6571 26.1633 26.6002 26.0298L24.7813 21.7572C24.7244 21.6237 24.5933 21.537 24.4481 21.537H16.8019C16.6567 21.537 16.5256 21.6237 16.4687 21.7572L14.6498 26.0298C14.5929 26.1633 14.4618 26.25 14.3167 26.25H13.049ZM17.4929 19.3405C17.3923 19.5792 17.5675 19.8433 17.8265 19.8433H23.4235C23.6825 19.8433 23.8577 19.5792 23.7571 19.3405L20.9586 12.7056C20.8341 12.4104 20.4159 12.4104 20.2914 12.7056L17.4929 19.3405Z" fill="black" stroke="black" stroke-width="1.69271"/>
</svg>
