<svg width="50" height="21" viewBox="0 0 50 21" fill="none" xmlns="http://www.w3.org/2000/svg">
<rect width="49.8684" height="20.5789" rx="1.64474" fill="#D1FFE3"/>
<path d="M13.7921 10.6579H12.7352V8.43172H10.8463V7.55474H12.7352V5.17116H13.7921V10.6579ZM8.2941 12.2657H12.7352V11.1076H13.7921V15.1215H7.23723V11.1076H8.2941V12.2657ZM12.7352 14.2558V13.0977H8.2941V14.2558H12.7352ZM9.01368 6.74522C9.01368 7.16123 9.11112 7.56973 9.306 7.97075C9.50089 8.37176 9.78197 8.72967 10.1493 9.04448C10.5165 9.3593 10.9475 9.60103 11.4422 9.76968L10.8913 10.6017C10.3329 10.4068 9.84755 10.1182 9.4353 9.73595C9.02679 9.35367 8.71011 8.90956 8.48524 8.40361C8.26037 8.96953 7.93057 9.46423 7.49583 9.88773C7.06483 10.3075 6.55514 10.6204 5.96674 10.8265L5.41581 9.9833C5.92176 9.80715 6.364 9.55231 6.74252 9.21875C7.12105 8.8852 7.4115 8.50293 7.61388 8.07194C7.82001 7.64094 7.92307 7.19496 7.92307 6.73398V6.59906H5.74187V5.73333H11.1724V6.59906H9.01368V6.74522ZM24.5632 11.0514H15.3549V10.1744H19.4137V8.70156H20.4706V10.1744H24.5632V11.0514ZM20.4819 5.75581C20.4819 6.17556 20.6393 6.57283 20.9541 6.9476C21.2689 7.32238 21.6943 7.63907 22.2302 7.89766C22.7661 8.15626 23.3564 8.32678 24.001 8.40923L23.585 9.25248C22.7717 9.12506 22.0372 8.87208 21.3813 8.49356C20.7292 8.11503 20.2476 7.65406 19.9366 7.11063C19.6217 7.65781 19.1364 8.12066 18.4805 8.49918C17.8284 8.87396 17.0939 9.12506 16.2769 9.25248L15.8833 8.40923C16.5205 8.32678 17.107 8.15626 17.6429 7.89766C18.1826 7.63907 18.6098 7.32238 18.9247 6.9476C19.2395 6.56908 19.3988 6.17181 19.4025 5.75581V5.32857H20.4819V5.75581ZM23.4164 15.2452H22.337V12.7829H16.378V11.9396H23.4164V15.2452ZM33.1531 9.18502H34.7159V10.0732H33.1531V15.2339H32.085V5.17116H33.1531V9.18502ZM30.5221 6.22803C30.5146 7.76462 30.1417 9.1438 29.4034 10.3656C28.6651 11.5873 27.5014 12.5917 25.9124 13.3788L25.3165 12.5468C26.5757 11.9171 27.5483 11.1489 28.2341 10.2419C28.9237 9.33493 29.3229 8.29305 29.4315 7.11625H25.8224V6.22803H30.5221ZM43.3957 8.75778H36.4811V5.35105H37.538V7.89204H43.3957V8.75778ZM44.4526 10.7029H35.2556V9.82589H44.4526V10.7029ZM39.8428 11.5236C40.5662 11.5236 41.1864 11.5948 41.7036 11.7373C42.2246 11.8797 42.6237 12.0895 42.901 12.3669C43.1784 12.6405 43.317 12.9703 43.317 13.3563C43.317 13.7461 43.1784 14.0777 42.901 14.3513C42.6237 14.6287 42.2246 14.8385 41.7036 14.981C41.1864 15.1271 40.5662 15.2002 39.8428 15.2002C39.1158 15.2002 38.4899 15.1271 37.9652 14.981C37.4443 14.8385 37.0433 14.6287 36.7622 14.3513C36.4848 14.0777 36.3462 13.7461 36.3462 13.3563C36.3462 12.9703 36.4848 12.6405 36.7622 12.3669C37.0433 12.0895 37.4443 11.8797 37.9652 11.7373C38.4899 11.5948 39.1158 11.5236 39.8428 11.5236ZM39.8428 12.3556C39.0633 12.3631 38.4655 12.4512 38.0495 12.6199C37.6335 12.7885 37.4255 13.034 37.4255 13.3563C37.4255 13.6786 37.6354 13.9297 38.0552 14.1096C38.4787 14.2895 39.0746 14.3794 39.8428 14.3794C40.3451 14.3794 40.776 14.3401 41.1358 14.2614C41.4994 14.1789 41.7748 14.0609 41.9622 13.9072C42.1534 13.7536 42.2489 13.5699 42.2489 13.3563C42.2489 13.034 42.039 12.7885 41.6193 12.6199C41.2033 12.4512 40.6111 12.3631 39.8428 12.3556Z" fill="#017E35"/>
</svg>
