<svg width="22" height="22" viewBox="0 0 22 22" fill="none" xmlns="http://www.w3.org/2000/svg">
<rect x="0.434785" y="0.434846" width="20.8696" height="20.8696" rx="1.30435" fill="white"/>
<rect x="0.434785" y="0.434846" width="20.8696" height="20.8696" rx="1.30435" stroke="#3F3F3F" stroke-width="0.869565"/>
<path d="M7.32046 16.3479H5.01237V7.46713H4.95123L2.41387 9.0568V7.02385L5.14994 5.28132H7.32046V16.3479ZM13.8127 16.5008C13.0128 16.5008 12.2943 16.3632 11.6575 16.088C11.0257 15.8078 10.5263 15.4206 10.1595 14.9264C9.79774 14.427 9.60922 13.8615 9.59393 13.2297H11.9173C11.9326 13.4997 12.0243 13.7392 12.1924 13.9481C12.3606 14.157 12.5873 14.32 12.8726 14.4372C13.158 14.5493 13.4764 14.6054 13.828 14.6054C14.1897 14.6054 14.5133 14.5417 14.7986 14.4143C15.089 14.2818 15.3132 14.101 15.4711 13.8717C15.6342 13.6424 15.7132 13.3825 15.7081 13.0921C15.7132 12.7915 15.6291 12.524 15.4559 12.2896C15.2877 12.0553 15.0457 11.8744 14.7298 11.747C14.4139 11.6145 14.042 11.5483 13.614 11.5483H12.5899V9.85164H13.614C13.9706 9.85164 14.2891 9.7905 14.5693 9.66821C14.8495 9.54593 15.0686 9.3727 15.2266 9.14851C15.3845 8.92433 15.4635 8.66957 15.4635 8.38425C15.4635 8.10401 15.3947 7.8569 15.2571 7.64291C15.1247 7.42891 14.9362 7.26332 14.6916 7.14613C14.447 7.02385 14.1642 6.96271 13.8433 6.96271C13.5172 6.96271 13.2166 7.0213 12.9414 7.13849C12.6714 7.25058 12.4523 7.41363 12.2842 7.62762C12.1211 7.83652 12.0345 8.07854 12.0243 8.35367H9.82321C9.8334 7.72698 10.0143 7.16906 10.3658 6.67993C10.7174 6.1908 11.1963 5.81122 11.8027 5.54117C12.4141 5.26604 13.0943 5.12847 13.8433 5.12847C14.5973 5.12847 15.2648 5.26604 15.8456 5.54117C16.4316 5.81122 16.885 6.18571 17.206 6.66465C17.527 7.13849 17.685 7.66584 17.6799 8.24668C17.685 8.64919 17.5984 9.01604 17.42 9.34722C17.2468 9.67331 16.9997 9.94335 16.6787 10.1573C16.3628 10.3713 15.9985 10.514 15.5858 10.5853V10.677C16.1208 10.7433 16.5768 10.891 16.9538 11.1203C17.3309 11.3496 17.6162 11.6477 17.8098 12.0145C18.0034 12.3763 18.0977 12.7864 18.0926 13.245C18.0977 13.8666 17.9168 14.427 17.5499 14.9264C17.1831 15.4206 16.6736 15.8078 16.0214 16.088C15.3692 16.3632 14.633 16.5008 13.8127 16.5008Z" fill="#3F3F3F"/>
</svg>
