<svg width="22" height="22" viewBox="0 0 22 22" fill="none" xmlns="http://www.w3.org/2000/svg">
<circle cx="10.6521" cy="10.6522" r="10.2174" fill="white" stroke="#3F3F3F" stroke-width="0.869565"/>
<path d="M6.63002 15.9131H4.32194V7.03231H4.2608L1.72343 8.62199V6.58904L4.45951 4.84651H6.63002V15.9131ZM13.1834 16.0659C12.3529 16.0659 11.6065 15.9309 10.9441 15.6609C10.2868 15.3908 9.77222 15.0189 9.40027 14.545C9.02833 14.0661 8.84236 13.5286 8.84236 12.9324C8.84236 12.479 8.94936 12.0561 9.16335 11.6638C9.37735 11.2714 9.67031 10.9479 10.0423 10.6931C10.4193 10.4333 10.8345 10.2677 11.288 10.1964V10.1199C10.8957 10.0435 10.5467 9.89067 10.241 9.66139C9.93526 9.42701 9.69579 9.13659 9.52256 8.79012C9.35442 8.44366 9.27035 8.07171 9.27035 7.6743C9.27035 7.10364 9.43849 6.59413 9.77476 6.14576C10.111 5.6923 10.5772 5.33819 11.1734 5.08343C11.7695 4.82358 12.4395 4.69366 13.1834 4.69366C13.9273 4.69366 14.5973 4.82358 15.1934 5.08343C15.7895 5.33819 16.2557 5.6923 16.592 6.14576C16.9334 6.59413 17.1066 7.10364 17.1117 7.6743C17.1066 8.07681 17.0175 8.4513 16.8442 8.79777C16.671 9.13914 16.4315 9.42701 16.1258 9.66139C15.8201 9.89067 15.4762 10.0435 15.0941 10.1199V10.1964C15.5424 10.2677 15.95 10.4333 16.3169 10.6931C16.6888 10.9479 16.9818 11.2714 17.1958 11.6638C17.4149 12.0561 17.5244 12.479 17.5244 12.9324C17.5244 13.5286 17.3385 14.0661 16.9665 14.545C16.5946 15.0189 16.0774 15.3908 15.415 15.6609C14.7578 15.9309 14.0139 16.0659 13.1834 16.0659ZM13.1834 14.3081C13.5655 14.3081 13.9018 14.2419 14.1922 14.1094C14.4877 13.9718 14.717 13.7808 14.8801 13.5362C15.0431 13.2917 15.1246 13.014 15.1246 12.7032C15.1246 12.3873 15.0406 12.1019 14.8724 11.8472C14.7094 11.5924 14.4801 11.3937 14.1846 11.2511C13.8891 11.1084 13.5553 11.0371 13.1834 11.0371C12.8114 11.0371 12.4752 11.1084 12.1746 11.2511C11.879 11.3937 11.6472 11.5924 11.4791 11.8472C11.316 12.1019 11.2371 12.3873 11.2422 12.7032C11.2371 13.014 11.3135 13.2917 11.4714 13.5362C11.6345 13.7808 11.8638 13.9718 12.1593 14.1094C12.4548 14.2419 12.7962 14.3081 13.1834 14.3081ZM13.1834 9.41682C13.5044 9.41682 13.7923 9.35313 14.047 9.22576C14.3069 9.09328 14.5081 8.91241 14.6508 8.68313C14.7934 8.45385 14.8648 8.194 14.8648 7.90358C14.8648 7.62334 14.7934 7.37114 14.6508 7.14695C14.5081 6.92277 14.3094 6.74953 14.0547 6.62725C13.7999 6.49987 13.5095 6.43618 13.1834 6.43618C12.8573 6.43618 12.5669 6.49733 12.3121 6.61961C12.0625 6.74189 11.8663 6.91512 11.7236 7.13931C11.5861 7.36349 11.5173 7.61825 11.5173 7.90358C11.5173 8.194 11.5886 8.45385 11.7313 8.68313C11.8739 8.91241 12.0701 9.09328 12.3198 9.22576C12.5745 9.35313 12.8624 9.41682 13.1834 9.41682Z" fill="#3F3F3F"/>
</svg>
