<svg width="39" height="39" viewBox="0 0 39 39" fill="none" xmlns="http://www.w3.org/2000/svg">
<rect width="38.0342" height="38.0342" rx="4.56411" fill="#161616"/>
<path d="M12.1702 28.1284V8.76662H19.578C23.7766 8.76662 25.8625 10.906 25.8625 13.7943C25.8625 16.1476 24.3649 17.458 22.4662 17.9127V18.0999C24.5254 18.2068 26.6113 19.9184 26.6113 22.8601C26.6113 25.882 24.4452 28.1284 20.0059 28.1284H12.1702ZM19.471 25.2135C22.0116 25.2135 23.0813 24.117 23.0813 22.5927C23.0813 20.8544 21.7174 19.5172 19.5512 19.5172H15.6468V25.2135H19.471ZM19.1501 17.0034C20.9953 17.0034 22.386 15.9337 22.386 14.2222C22.386 12.7246 21.3162 11.6548 19.2303 11.6548H15.6468V17.0034H19.1501Z" fill="white"/>
</svg>
