<svg width="80" height="46" viewBox="0 0 80 46" fill="none" xmlns="http://www.w3.org/2000/svg">
<rect x="0.25" y="0.25" width="79.5" height="45.5" rx="5.75" fill="white"/>
<rect x="0.25" y="0.25" width="79.5" height="45.5" rx="5.75" stroke="#E9E9E9" stroke-width="0.5"/>
<path d="M20.7031 36.8301H19.8145V28.0801H20.7031V36.8301ZM19.0039 36.4102H18.1348V32.1816H17.2168V31.4102H18.1348V28.2559H19.0039V36.4102ZM17.4512 30.2773H13.1543V29.5254H14.8438V28.3047H15.7715V29.5254H17.4512V30.2773ZM15.2832 30.8047C15.6413 30.8047 15.9619 30.891 16.2451 31.0635C16.5283 31.236 16.7497 31.4769 16.9092 31.7861C17.0687 32.0921 17.1484 32.4388 17.1484 32.8262C17.1484 33.2168 17.0687 33.5667 16.9092 33.876C16.7497 34.1852 16.5283 34.4261 16.2451 34.5986C15.9619 34.7712 15.6413 34.8574 15.2832 34.8574C14.9316 34.8574 14.6143 34.7712 14.3311 34.5986C14.0511 34.4261 13.8314 34.1852 13.6719 33.876C13.5124 33.5667 13.4342 33.2168 13.4375 32.8262C13.4342 32.4388 13.5124 32.0921 13.6719 31.7861C13.8314 31.4769 14.0511 31.236 14.3311 31.0635C14.6143 30.891 14.9316 30.8047 15.2832 30.8047ZM15.2832 31.5859C15.0846 31.5859 14.9056 31.638 14.7461 31.7422C14.5898 31.8464 14.4678 31.9928 14.3799 32.1816C14.292 32.3704 14.2481 32.5853 14.2481 32.8262C14.2481 33.0703 14.292 33.2868 14.3799 33.4756C14.4678 33.6644 14.5898 33.8125 14.7461 33.9199C14.9056 34.0241 15.0846 34.0762 15.2832 34.0762C15.485 34.0762 15.6657 34.0241 15.8252 33.9199C15.988 33.8125 16.1149 33.6644 16.2061 33.4756C16.2972 33.2868 16.3444 33.0703 16.3477 32.8262C16.3444 32.5853 16.2972 32.3704 16.2061 32.1816C16.1149 31.9928 15.988 31.8464 15.8252 31.7422C15.6657 31.638 15.485 31.5859 15.2832 31.5859ZM28.9063 32.9922H22.8125V28.8613H28.8281V29.623H23.7305V32.2305H28.9063V32.9922ZM29.8242 35.6777H21.8164V34.9063H29.8242V35.6777ZM37.9199 34.5938H37.041V31.4199H35.9668V34.3594H35.0977V28.2461H35.9668V30.6582H37.041V28.0898H37.9199V34.5938ZM38.1738 36.6445H32.1191V33.9883H33.0371V35.8926H38.1738V36.6445ZM34.1504 31.3906H31.748V32.5723C32.3079 32.5723 32.8092 32.5544 33.252 32.5186C33.6947 32.4827 34.1504 32.4193 34.6191 32.3281L34.7168 33.0703C34.196 33.168 33.6898 33.2331 33.1982 33.2656C32.71 33.2982 32.1191 33.3145 31.4258 33.3145H30.8496V30.6875H33.2617V29.5645H30.8301V28.8223H34.1504V31.3906ZM46.1914 32.9922H40.0977V28.8613H46.1133V29.623H41.0156V32.2305H46.1914V32.9922ZM47.1094 35.6777H39.1016V34.9063H47.1094V35.6777ZM53.7012 29.3887V29.5254C53.6947 29.9421 53.68 30.3343 53.6572 30.7021C53.6377 31.07 53.584 31.5306 53.4961 32.084C53.4082 32.6341 53.2747 33.2428 53.0957 33.9102L52.168 33.7637C52.3991 32.9531 52.5553 32.2256 52.6367 31.5811C52.7214 30.9365 52.7686 30.3294 52.7783 29.7598H50.791V29.0078H53.7012V29.3887ZM58.1641 35.5508H50.1855V34.7793H58.1641V35.5508ZM57.2852 29.6523C57.2852 30.1243 57.2786 30.5394 57.2656 30.8975C57.2559 31.2555 57.2233 31.6917 57.168 32.2061C57.1126 32.7171 57.0247 33.2786 56.9043 33.8906L55.9668 33.793C56.1328 32.9987 56.2386 32.2972 56.2842 31.6885C56.333 31.0798 56.3607 30.4368 56.3672 29.7598H54.3164V29.0078H57.2852V29.6523ZM66.1035 36.8301H65.166V28.0801H66.1035V36.8301ZM63.4961 29.0176C63.4961 30.3717 63.1722 31.5762 62.5244 32.6309C61.8799 33.6823 60.8398 34.5514 59.4043 35.2383L58.916 34.4863C60.0651 33.9395 60.9359 33.2738 61.5283 32.4893C62.124 31.7048 62.4674 30.7949 62.5586 29.7598H59.3359V29.0176H63.4961Z" fill="#161616"/>
<rect x="33.5" y="7.5" width="12.5" height="12.5" rx="2.84091" stroke="#3F3F3F" stroke-width="1.13636"/>
</svg>
