<svg width="72" height="41" viewBox="0 0 72 41" fill="none" xmlns="http://www.w3.org/2000/svg">
<rect width="71.3057" height="41.0008" rx="5.34793" fill="white"/>
<path d="M23.6017 23.5354H24.2791C24.2791 24.1712 24.2672 24.8099 24.2434 25.4517C24.2256 26.0875 24.1721 26.7114 24.083 27.3235C23.9939 27.9296 23.8483 28.5089 23.6462 29.0616C23.4502 29.6142 23.1768 30.1163 22.8262 30.5679C22.4756 31.0195 22.0211 31.4117 21.4625 31.7444C21.415 31.6672 21.3437 31.581 21.2486 31.4859C21.1595 31.3909 21.0703 31.3166 20.9812 31.2631C21.516 30.9541 21.9498 30.5887 22.2825 30.1668C22.6153 29.739 22.8708 29.2666 23.0491 28.7496C23.2333 28.2326 23.364 27.6889 23.4412 27.1185C23.5185 26.5421 23.5631 25.9508 23.5749 25.3447C23.5868 24.7386 23.5957 24.1355 23.6017 23.5354ZM21.6408 25.1576H26.2846V26.9046H25.6517V25.7637H22.2558V26.9046H21.6408V25.1576ZM23.8156 26.9402H24.4663V30.6838C24.4663 30.8204 24.4811 30.9096 24.5108 30.9512C24.5465 30.9868 24.6237 31.0046 24.7426 31.0046C24.7782 31.0046 24.8287 31.0046 24.8941 31.0046C24.9654 31.0046 25.0426 31.0046 25.1258 31.0046C25.215 31.0046 25.2982 31.0046 25.3754 31.0046C25.4527 31.0046 25.5091 31.0046 25.5448 31.0046C25.6279 31.0046 25.6903 30.969 25.7319 30.8977C25.7795 30.8264 25.8092 30.6867 25.8211 30.4788C25.8389 30.2708 25.8537 29.9618 25.8656 29.5518C25.9132 29.5874 25.9696 29.6261 26.035 29.6677C26.1063 29.7033 26.1776 29.736 26.2489 29.7657C26.3261 29.7895 26.3945 29.8103 26.4539 29.8281C26.4361 30.2916 26.4004 30.654 26.3469 30.9155C26.2935 31.177 26.2073 31.3582 26.0885 31.4592C25.9756 31.5602 25.8122 31.6107 25.5982 31.6107C25.5626 31.6107 25.5002 31.6107 25.4111 31.6107C25.3219 31.6107 25.2269 31.6107 25.1258 31.6107C25.0248 31.6107 24.9297 31.6107 24.8406 31.6107C24.7515 31.6107 24.6891 31.6107 24.6534 31.6107C24.4336 31.6107 24.2613 31.584 24.1365 31.5305C24.0176 31.477 23.9344 31.382 23.8869 31.2453C23.8394 31.1086 23.8156 30.9185 23.8156 30.6748V26.9402ZM18.2894 25.4428H21.4179V26.0756H18.2894V25.4428ZM19.6264 23.5354H20.2592V31.7266H19.6264V23.5354ZM19.5996 25.8439L20.0186 25.9865C19.9473 26.343 19.8552 26.7144 19.7423 27.1006C19.6294 27.4809 19.5016 27.8553 19.359 28.2237C19.2223 28.5921 19.0738 28.9368 18.9133 29.2576C18.7529 29.5726 18.5895 29.84 18.4231 30.0598C18.3874 29.9707 18.334 29.8697 18.2627 29.7568C18.1914 29.6379 18.126 29.5399 18.0666 29.4626C18.227 29.2606 18.3815 29.02 18.5301 28.7407C18.6846 28.4614 18.8301 28.1583 18.9668 27.8315C19.1035 27.5047 19.2253 27.172 19.3322 26.8332C19.4392 26.4945 19.5283 26.1648 19.5996 25.8439ZM20.2236 26.8065C20.277 26.8659 20.3632 26.9699 20.482 27.1185C20.6068 27.267 20.7376 27.4275 20.8742 27.5998C21.0109 27.7721 21.1357 27.9325 21.2486 28.0811C21.3615 28.2297 21.4417 28.3366 21.4892 28.402L21.0792 28.9279C21.0198 28.815 20.9366 28.6753 20.8297 28.5089C20.7286 28.3426 20.6187 28.1702 20.4999 27.992C20.381 27.8137 20.2652 27.6473 20.1523 27.4928C20.0453 27.3324 19.9591 27.2046 19.8938 27.1096L20.2236 26.8065ZM32.399 23.5354H33.0319V29.7479H32.399V23.5354ZM29.6003 27.2076L34.3956 25.1843L34.6541 25.7547L29.8498 27.8048L29.6003 27.2076ZM30.5629 24.3643H31.2046V30.3361C31.2046 30.4966 31.2225 30.6214 31.2581 30.7105C31.2938 30.7937 31.3591 30.8501 31.4542 30.8798C31.5552 30.9096 31.7068 30.9244 31.9088 30.9244C31.9682 30.9244 32.0663 30.9244 32.2029 30.9244C32.3396 30.9244 32.4971 30.9244 32.6753 30.9244C32.8595 30.9244 33.0437 30.9244 33.2279 30.9244C33.4122 30.9244 33.5785 30.9244 33.7271 30.9244C33.8756 30.9244 33.9856 30.9244 34.0569 30.9244C34.2351 30.9244 34.3659 30.8917 34.4491 30.8264C34.5382 30.7551 34.6006 30.6273 34.6362 30.4431C34.6778 30.2589 34.7105 29.9974 34.7343 29.6587C34.8115 29.7182 34.9066 29.7716 35.0195 29.8192C35.1383 29.8667 35.2423 29.8964 35.3315 29.9083C35.3018 30.3183 35.2483 30.6422 35.171 30.8798C35.0938 31.1175 34.969 31.2839 34.7967 31.379C34.6303 31.48 34.3926 31.5305 34.0836 31.5305C34.0301 31.5305 33.9291 31.5305 33.7806 31.5305C33.638 31.5305 33.4686 31.5305 33.2725 31.5305C33.0764 31.5305 32.8803 31.5305 32.6842 31.5305C32.4882 31.5305 32.3158 31.5305 32.1673 31.5305C32.0247 31.5305 31.9296 31.5305 31.8821 31.5305C31.5434 31.5305 31.276 31.4949 31.0799 31.4236C30.8897 31.3582 30.756 31.2364 30.6788 31.0581C30.6015 30.8858 30.5629 30.6392 30.5629 30.3183V24.3643ZM34.2797 25.2734H34.2084L34.3599 25.1397L34.4847 25.0417L34.9571 25.22L34.9215 25.3447C34.9215 25.7666 34.9185 26.1618 34.9125 26.5302C34.9125 26.8986 34.9096 27.2314 34.9036 27.5285C34.8977 27.8256 34.8888 28.0752 34.8769 28.2772C34.865 28.4733 34.8531 28.6159 34.8412 28.705C34.8175 28.8833 34.764 29.02 34.6808 29.115C34.5976 29.2042 34.4877 29.2636 34.351 29.2933C34.2322 29.3289 34.0925 29.3497 33.9321 29.3557C33.7776 29.3616 33.638 29.3646 33.5132 29.3646C33.5013 29.2755 33.4805 29.1745 33.4508 29.0616C33.427 28.9487 33.3943 28.8536 33.3527 28.7763C33.4597 28.7823 33.5726 28.7882 33.6914 28.7942C33.8162 28.7942 33.9024 28.7942 33.9499 28.7942C34.0212 28.7942 34.0777 28.7793 34.1193 28.7496C34.1668 28.7199 34.1995 28.6545 34.2173 28.5535C34.2351 28.4941 34.247 28.3752 34.253 28.197C34.2649 28.0128 34.2708 27.778 34.2708 27.4928C34.2767 27.2076 34.2797 26.8778 34.2797 26.5035C34.2797 26.1291 34.2797 25.7191 34.2797 25.2734ZM27.1135 25.6834H29.939V26.3163H27.1135V25.6834ZM28.2544 23.6423H28.8872V29.427H28.2544V23.6423ZM27.0333 29.6498C27.2709 29.5607 27.5443 29.4537 27.8533 29.3289C28.1682 29.1982 28.501 29.0616 28.8516 28.9189C29.2021 28.7704 29.5527 28.6218 29.9033 28.4733L30.0548 29.0705C29.5795 29.2903 29.0982 29.5102 28.6109 29.73C28.1296 29.9499 27.6928 30.146 27.3007 30.3183L27.0333 29.6498ZM41.5351 24.0434C41.5172 24.1623 41.5024 24.287 41.4905 24.4178C41.4846 24.5426 41.4816 24.6673 41.4816 24.7921C41.4875 24.9526 41.4905 25.1694 41.4905 25.4428C41.4964 25.7102 41.5024 26.0132 41.5083 26.3519C41.5143 26.6906 41.5202 27.0472 41.5262 27.4215C41.5321 27.7959 41.538 28.1702 41.544 28.5446C41.5499 28.9189 41.5559 29.2784 41.5618 29.6231C41.5677 29.9677 41.5707 30.2797 41.5707 30.559C41.5707 30.7907 41.5024 30.966 41.3657 31.0849C41.229 31.2096 41.027 31.272 40.7596 31.272C40.5338 31.272 40.2932 31.2661 40.0376 31.2542C39.7881 31.2483 39.5534 31.2364 39.3335 31.2186L39.2711 30.4877C39.485 30.5233 39.7049 30.5501 39.9307 30.5679C40.1624 30.5857 40.3615 30.5946 40.5279 30.5946C40.6527 30.5946 40.7388 30.5649 40.7864 30.5055C40.8339 30.4461 40.8577 30.3569 40.8577 30.2381C40.8577 30.0242 40.8577 29.7657 40.8577 29.4626C40.8577 29.1596 40.8547 28.8328 40.8487 28.4822C40.8487 28.1257 40.8458 27.7662 40.8398 27.4037C40.8339 27.0412 40.828 26.6936 40.822 26.3608C40.8161 26.0221 40.8101 25.7161 40.8042 25.4428C40.8042 25.1694 40.7982 24.9526 40.7864 24.7921C40.7745 24.6198 40.7626 24.4772 40.7507 24.3643C40.7388 24.2454 40.724 24.1385 40.7061 24.0434H41.5351ZM36.7487 25.6032C36.8794 25.6151 37.0131 25.627 37.1498 25.6389C37.2924 25.6508 37.432 25.6567 37.5687 25.6567C37.634 25.6567 37.7707 25.6567 37.9787 25.6567C38.1867 25.6567 38.4422 25.6567 38.7452 25.6567C39.0483 25.6567 39.3721 25.6567 39.7168 25.6567C40.0614 25.6567 40.4061 25.6567 40.7507 25.6567C41.1013 25.6567 41.4251 25.6567 41.7222 25.6567C42.0253 25.6567 42.2808 25.6567 42.4888 25.6567C42.6968 25.6567 42.8334 25.6567 42.8988 25.6567C43.0176 25.6567 43.1513 25.6508 43.2999 25.6389C43.4544 25.6211 43.5732 25.6092 43.6564 25.6032V26.3519C43.5554 26.346 43.4336 26.343 43.291 26.343C43.1543 26.3371 43.0325 26.3341 42.9255 26.3341C42.8661 26.3341 42.7324 26.3341 42.5244 26.3341C42.3224 26.3341 42.0669 26.3341 41.7579 26.3341C41.4548 26.3341 41.128 26.3341 40.7774 26.3341C40.4328 26.3341 40.0822 26.3341 39.7257 26.3341C39.3751 26.3341 39.0483 26.3341 38.7452 26.3341C38.4422 26.3341 38.1867 26.3341 37.9787 26.3341C37.7707 26.3341 37.64 26.3341 37.5865 26.3341C37.438 26.3341 37.2953 26.3371 37.1587 26.343C37.022 26.343 36.8853 26.349 36.7487 26.3608V25.6032ZM36.4189 29.7657C36.8943 29.5399 37.3459 29.2784 37.7737 28.9813C38.2075 28.6783 38.6086 28.3663 38.977 28.0454C39.3454 27.7186 39.6692 27.3978 39.9485 27.0828C40.2278 26.7619 40.4477 26.4678 40.6081 26.2004L40.9646 26.1915L40.9735 26.7976C40.8072 27.0591 40.5843 27.3502 40.305 27.6711C40.0258 27.986 39.7049 28.3069 39.3424 28.6337C38.9859 28.9546 38.5996 29.2636 38.1837 29.5607C37.7737 29.8578 37.3577 30.1193 36.9358 30.3451L36.4189 29.7657ZM52.2398 25.0952C52.2101 25.1605 52.1834 25.2289 52.1596 25.3002C52.1418 25.3715 52.124 25.4517 52.1061 25.5408C52.0586 25.7785 51.9962 26.04 51.919 26.3252C51.8417 26.6045 51.7466 26.8956 51.6337 27.1987C51.5268 27.4958 51.399 27.787 51.2505 28.0722C51.1079 28.3515 50.9504 28.604 50.7781 28.8298C50.5047 29.1745 50.2017 29.4983 49.8689 29.8014C49.5362 30.0985 49.1559 30.3659 48.728 30.6035C48.3002 30.8412 47.8129 31.0462 47.2663 31.2186L46.6602 30.5501C47.2425 30.4015 47.7446 30.2232 48.1665 30.0153C48.5943 29.8014 48.9687 29.5577 49.2896 29.2844C49.6104 29.011 49.8927 28.7169 50.1363 28.402C50.3502 28.1346 50.5344 27.8286 50.6889 27.4839C50.8494 27.1393 50.9801 26.7946 51.0811 26.45C51.1881 26.0994 51.2624 25.7815 51.304 25.4963C51.2208 25.4963 51.0633 25.4963 50.8316 25.4963C50.5998 25.4963 50.3265 25.4963 50.0115 25.4963C49.6966 25.4963 49.3668 25.4963 49.0222 25.4963C48.6835 25.4963 48.3566 25.4963 48.0417 25.4963C47.7268 25.4963 47.4534 25.4963 47.2217 25.4963C46.99 25.4963 46.8325 25.4963 46.7493 25.4963C46.571 25.4963 46.4076 25.4992 46.2591 25.5052C46.1105 25.5111 45.9768 25.5171 45.858 25.523V24.7386C45.9412 24.7446 46.0333 24.7535 46.1343 24.7654C46.2353 24.7773 46.3393 24.7862 46.4463 24.7921C46.5532 24.7921 46.6542 24.7921 46.7493 24.7921C46.8206 24.7921 46.9484 24.7921 47.1326 24.7921C47.3168 24.7921 47.5337 24.7921 47.7832 24.7921C48.0387 24.7921 48.3091 24.7921 48.5943 24.7921C48.8855 24.7921 49.1707 24.7921 49.45 24.7921C49.7352 24.7921 49.9997 24.7921 50.2433 24.7921C50.4929 24.7921 50.7038 24.7921 50.8761 24.7921C51.0484 24.7921 51.1643 24.7921 51.2237 24.7921C51.2891 24.7921 51.3634 24.7921 51.4466 24.7921C51.5298 24.7862 51.6129 24.7713 51.6961 24.7476L52.2398 25.0952Z" fill="#161616"/>
<rect x="29.8594" y="6.68506" width="11.1415" height="11.1415" rx="2.53216" stroke="#A2A2A2" stroke-width="1.01287"/>
</svg>
