<svg width="22" height="22" viewBox="0 0 22 22" fill="none" xmlns="http://www.w3.org/2000/svg">
<circle cx="10.6521" cy="10.6522" r="10.2174" fill="white" stroke="#3F3F3F" stroke-width="0.869565"/>
<path d="M0.607603 14.247L4.58179 10.5938C4.97411 10.2168 5.27727 9.90341 5.49127 9.65374C5.71035 9.40408 5.87849 9.15697 5.99568 8.91241C6.11287 8.66275 6.17146 8.3978 6.17146 8.11757C6.17146 7.79658 6.09504 7.51635 5.94218 7.27688C5.79442 7.03741 5.58552 6.85398 5.31548 6.7266C5.05054 6.59413 4.74993 6.5279 4.41365 6.5279C3.89395 6.5279 3.4787 6.6833 3.1679 6.9941C2.85709 7.2998 2.70169 7.71506 2.70169 8.23985H0.515891C0.510796 7.52654 0.671292 6.90239 0.997379 6.3674C1.32856 5.83241 1.79222 5.41971 2.38834 5.12929C2.98447 4.83887 3.66976 4.69366 4.44422 4.69366C5.22377 4.69366 5.91161 4.83377 6.50774 5.114C7.10387 5.38914 7.56497 5.77382 7.89106 6.26805C8.22224 6.76227 8.38783 7.32783 8.38783 7.96472C8.38783 8.3978 8.30377 8.8156 8.13563 9.21811C7.96749 9.61553 7.67452 10.0614 7.25672 10.5556C6.84402 11.0447 6.25808 11.6332 5.49891 12.321L3.81752 13.9566V14.0177H8.54069V15.9131H0.622889L0.607603 14.247ZM14.2992 16.0659C13.377 16.0659 12.5822 15.8443 11.9147 15.401C11.2523 14.9527 10.7428 14.303 10.3862 13.4521C10.0295 12.6013 9.85119 11.5771 9.85119 10.3798C9.85119 9.18245 10.0295 8.15833 10.3862 7.30745C10.7428 6.45656 11.2523 5.80949 11.9147 5.36621C12.5822 4.91784 13.377 4.69366 14.2992 4.69366C15.2163 4.69366 16.0086 4.91784 16.6761 5.36621C17.3435 5.80949 17.8556 6.45911 18.2123 7.31509C18.5689 8.16597 18.7473 9.18754 18.7473 10.3798C18.7473 11.5822 18.5689 12.6089 18.2123 13.4598C17.8556 14.3107 17.3435 14.9578 16.6761 15.401C16.0137 15.8443 15.2214 16.0659 14.2992 16.0659ZM14.2992 14.1706C14.7272 14.1706 15.0966 14.033 15.4074 13.7579C15.7233 13.4827 15.9653 13.0675 16.1335 12.5121C16.3067 11.9567 16.3933 11.2714 16.3933 10.4562C16.3933 9.18754 16.2099 8.22457 15.843 7.5673C15.4762 6.90493 14.9616 6.57375 14.2992 6.57375C13.6369 6.57375 13.1223 6.90493 12.7554 7.5673C12.3886 8.22457 12.2051 9.18754 12.2051 10.4562C12.2051 11.2714 12.2892 11.9567 12.4573 12.5121C12.6306 13.0675 12.8726 13.4827 13.1834 13.7579C13.4993 14.033 13.8712 14.1706 14.2992 14.1706Z" fill="#3F3F3F"/>
</svg>
