<svg width="22" height="22" viewBox="0 0 22 22" fill="none" xmlns="http://www.w3.org/2000/svg">
<circle cx="10.6521" cy="10.6522" r="10.2174" fill="white" stroke="#3F3F3F" stroke-width="0.869565"/>
<path d="M10.5876 16.0659C9.76218 16.0659 9.01319 15.8902 8.34064 15.5386C7.66809 15.1819 7.12546 14.6011 6.71275 13.7961C6.30005 12.9859 6.0937 11.9338 6.0937 10.6396C6.0937 9.41173 6.27967 8.35194 6.65161 7.4603C7.02355 6.56356 7.55345 5.87827 8.24129 5.40442C8.92912 4.93058 9.7316 4.69366 10.6487 4.69366C11.3722 4.69366 12.0219 4.83377 12.5976 5.114C13.1734 5.39423 13.6345 5.77891 13.9809 6.26805C14.3325 6.75718 14.5465 7.30745 14.6229 7.91886H12.3607C12.269 7.52654 12.0703 7.22083 11.7646 7.00174C11.4639 6.77756 11.092 6.66546 10.6487 6.66546C9.90993 6.66546 9.34183 6.97881 8.94441 7.60551C8.55209 8.22711 8.35083 9.09074 8.34064 10.1964H8.44764C8.6973 9.71234 9.07688 9.33275 9.58639 9.05762C10.0959 8.77739 10.6589 8.63727 11.2754 8.63727C11.9327 8.63727 12.5237 8.79267 13.0485 9.10347C13.5784 9.40918 13.9937 9.83462 14.2943 10.3798C14.5949 10.9199 14.7452 11.5313 14.7452 12.214C14.7452 12.9528 14.5694 13.6152 14.2178 14.2011C13.8714 14.782 13.3822 15.238 12.7505 15.5692C12.1187 15.9003 11.3977 16.0659 10.5876 16.0659ZM10.5417 14.247C10.9137 14.247 11.2499 14.1604 11.5506 13.9871C11.8512 13.8139 12.0855 13.577 12.2537 13.2764C12.4269 12.9758 12.5135 12.642 12.5135 12.2752C12.5135 11.9134 12.4295 11.5822 12.2613 11.2816C12.0983 10.981 11.869 10.7441 11.5735 10.5709C11.278 10.3925 10.9442 10.3034 10.5723 10.3034C10.2004 10.3034 9.86153 10.3925 9.55582 10.5709C9.25521 10.7441 9.01574 10.9836 8.83741 11.2893C8.66418 11.5899 8.57501 11.9185 8.56992 12.2752C8.57501 12.6369 8.66163 12.9681 8.82977 13.2687C9.003 13.5693 9.23993 13.8088 9.54054 13.9871C9.84115 14.1604 10.1749 14.247 10.5417 14.247Z" fill="#3F3F3F"/>
</svg>
