<svg width="22" height="26" viewBox="0 0 22 26" fill="none" xmlns="http://www.w3.org/2000/svg">
<path d="M10.9995 1.8335C16.0594 1.8335 20.1663 5.93972 20.1665 10.9995C20.1665 16.0595 16.0595 20.1665 10.9995 20.1665C5.93972 20.1663 1.8335 16.0594 1.8335 10.9995C1.83374 5.93987 5.93987 1.83374 10.9995 1.8335ZM6.50732 16.7886C7.74956 17.755 9.30799 18.3334 10.9995 18.3335C15.042 18.3335 18.3335 15.042 18.3335 10.9995C18.3334 9.30799 17.755 7.74956 16.7886 6.50732L6.50732 16.7886ZM10.9995 3.6665C6.95737 3.66675 3.66675 6.95737 3.6665 10.9995C3.6665 12.6908 4.24439 14.2495 5.21045 15.4917L15.4917 5.21045C14.2495 4.24439 12.6908 3.6665 10.9995 3.6665Z" fill="#757575"/>
</svg>
