<svg width="46" height="46" viewBox="0 0 46 46" fill="none" xmlns="http://www.w3.org/2000/svg">
<g opacity="0.8" filter="url(#filter0_d_1497_123899)">
<rect x="3" y="2" width="40" height="40" rx="4" fill="white"/>
<rect x="3.25" y="2.25" width="39.5" height="39.5" rx="3.75" stroke="#E9E9E9" stroke-width="0.5"/>
<circle cx="23" cy="23.5" r="9.5" fill="#757575"/>
<path d="M26.7922 27.775C26.7492 27.8322 26.688 27.8648 26.6246 27.8648C26.5974 27.8648 26.5702 27.8594 26.5453 27.8485L22.9998 26.2512L19.4543 27.8485C19.4294 27.8594 19.4022 27.8648 19.375 27.8648C19.3116 27.8648 19.2504 27.8322 19.2073 27.775C19.1439 27.6907 19.1303 27.5709 19.1734 27.4703L22.7982 18.7628C22.7982 18.7628 22.805 18.7519 22.8095 18.7464C22.8185 18.7274 22.8276 18.7111 22.8412 18.6947C22.848 18.6866 22.8571 18.6784 22.8639 18.6703C22.8775 18.6594 22.891 18.6485 22.9069 18.6403C22.9182 18.6349 22.9273 18.6294 22.9386 18.624H22.9477C22.9613 18.6186 22.9749 18.624 22.9885 18.624C22.9975 18.624 23.0089 18.6186 23.0202 18.624C23.0474 18.624 23.0746 18.6349 23.0995 18.6485H23.1017C23.1017 18.6485 23.1085 18.6567 23.1131 18.6594C23.1312 18.673 23.1493 18.6893 23.1652 18.7084C23.172 18.7192 23.1765 18.7301 23.1833 18.741C23.1901 18.7519 23.1969 18.7601 23.2014 18.7709L26.8262 27.4784C26.8693 27.5791 26.8557 27.6988 26.7922 27.7832V27.775Z" fill="#F3F3F3"/>
</g>
<defs>
<filter id="filter0_d_1497_123899" x="0" y="0" width="46" height="46" filterUnits="userSpaceOnUse" color-interpolation-filters="sRGB">
<feFlood flood-opacity="0" result="BackgroundImageFix"/>
<feColorMatrix in="SourceAlpha" type="matrix" values="0 0 0 0 0 0 0 0 0 0 0 0 0 0 0 0 0 0 127 0" result="hardAlpha"/>
<feOffset dy="1"/>
<feGaussianBlur stdDeviation="1.5"/>
<feComposite in2="hardAlpha" operator="out"/>
<feColorMatrix type="matrix" values="0 0 0 0 0 0 0 0 0 0 0 0 0 0 0 0 0 0 0.05 0"/>
<feBlend mode="normal" in2="BackgroundImageFix" result="effect1_dropShadow_1497_123899"/>
<feBlend mode="normal" in="SourceGraphic" in2="effect1_dropShadow_1497_123899" result="shape"/>
</filter>
</defs>
</svg>
