<svg width="40" height="40" viewBox="0 0 40 40" fill="none" xmlns="http://www.w3.org/2000/svg">
<rect width="40" height="40" rx="4.8" fill="black"/>
<path d="M20.001 7.26318C27.0351 7.26332 32.7373 12.9661 32.7373 20.0005C32.7372 27.0347 27.0352 32.7367 20.001 32.7368C12.9666 32.7368 7.26381 27.0348 7.26367 20.0005C7.26367 12.966 12.9665 7.26318 20.001 7.26318ZM10.2324 18.5366C10.1614 19.0143 10.123 19.5031 10.123 20.0005C10.1232 24.9348 13.7418 29.0215 18.4697 29.7573V25.854C18.4696 23.0609 16.663 20.5883 14.002 19.7397L10.2324 18.5366ZM25.999 19.7397C23.338 20.5884 21.5314 23.0609 21.5312 25.854V29.7573C26.2594 29.0217 29.8778 24.935 29.8779 20.0005C29.8779 19.5031 29.8395 19.0143 29.7686 18.5366L25.999 19.7397ZM20.001 10.1226C16.2377 10.1226 12.9663 12.2277 11.2988 15.3247C12.2128 15.8224 15.9143 17.6875 20 17.6431C24.0809 17.5986 27.7773 15.8032 28.6992 15.3208C27.031 12.2264 23.7625 10.1227 20.001 10.1226Z" fill="white" stroke="white" stroke-width="0.210526"/>
</svg>
