<svg width="54" height="54" viewBox="0 0 54 54" fill="none" xmlns="http://www.w3.org/2000/svg">
<g filter="url(#filter0_d_1154_146292)">
<g clip-path="url(#clip0_1154_146292)">
<rect x="7.60742" y="7.60693" width="38.0342" height="38.0342" rx="4.56411" fill="#64F57B"/>
<path d="M26.6261 15.9746C20.7445 15.9746 15.9766 20.7425 15.9766 26.6242C15.9766 32.5059 20.7445 37.2738 26.6261 37.2738C32.5078 37.2738 37.2757 32.5059 37.2757 26.6242C37.2757 20.7425 32.5077 15.9746 26.6261 15.9746ZM26.6261 18.2076C29.864 18.2076 32.6747 20.036 34.0824 22.7164C33.4641 23.0472 30.2229 24.6862 26.6261 24.7253C23.0275 24.7645 19.7846 23.0612 19.169 22.7183C20.5763 20.0368 23.3877 18.2076 26.6261 18.2076ZM18.2096 26.6242C18.2096 26.1649 18.2466 25.7141 18.3174 25.2747L21.5958 26.3202C23.8762 27.0475 25.4244 29.1662 25.4244 31.5598V34.9555C21.3454 34.3724 18.2096 30.8646 18.2096 26.6242ZM27.8279 34.9555V31.5598C27.8279 29.1662 29.376 27.0475 31.6564 26.3202L34.9349 25.2747C35.0057 25.7141 35.0427 26.1649 35.0427 26.6242C35.0427 30.8646 31.9069 34.3724 27.8279 34.9555Z" fill="black"/>
<g filter="url(#filter1_d_1154_146292)">
<rect x="7.60742" y="7.60693" width="38.0342" height="38.0342" rx="4.56411" fill="url(#paint0_linear_1154_146292)"/>
<g filter="url(#filter2_d_1154_146292)">
<path d="M26.6242 15.9746C20.7425 15.9746 15.9746 20.7425 15.9746 26.6242C15.9746 32.5059 20.7425 37.2738 26.6242 37.2738C32.5059 37.2738 37.2738 32.5059 37.2738 26.6242C37.2738 20.7425 32.5057 15.9746 26.6242 15.9746ZM26.6242 18.2076C29.862 18.2076 32.6727 20.036 34.0804 22.7164C33.4622 23.0472 30.2209 24.6862 26.6242 24.7253C23.0255 24.7645 19.7827 23.0612 19.167 22.7183C20.5744 20.0368 23.3857 18.2076 26.6242 18.2076ZM18.2076 26.6242C18.2076 26.1649 18.2447 25.7141 18.3155 25.2747L21.5939 26.3202C23.8743 27.0475 25.4225 29.1662 25.4225 31.5598V34.9555C21.3435 34.3724 18.2076 30.8646 18.2076 26.6242ZM27.8259 34.9555V31.5598C27.8259 29.1662 29.3741 27.0475 31.6545 26.3202L34.9329 25.2747C35.0037 25.7141 35.0407 26.1649 35.0407 26.6242C35.0407 30.8646 31.9049 34.3724 27.8259 34.9555Z" fill="white"/>
</g>
</g>
</g>
</g>
<defs>
<filter id="filter0_d_1154_146292" x="0.000578403" y="9.01222e-05" width="53.2488" height="53.2479" filterUnits="userSpaceOnUse" color-interpolation-filters="sRGB">
<feFlood flood-opacity="0" result="BackgroundImageFix"/>
<feColorMatrix in="SourceAlpha" type="matrix" values="0 0 0 0 0 0 0 0 0 0 0 0 0 0 0 0 0 0 127 0" result="hardAlpha"/>
<feOffset/>
<feGaussianBlur stdDeviation="3.80342"/>
<feComposite in2="hardAlpha" operator="out"/>
<feColorMatrix type="matrix" values="0 0 0 0 0 0 0 0 0 0 0 0 0 0 0 0 0 0 0.2 0"/>
<feBlend mode="normal" in2="BackgroundImageFix" result="effect1_dropShadow_1154_146292"/>
<feBlend mode="normal" in="SourceGraphic" in2="effect1_dropShadow_1154_146292" result="shape"/>
</filter>
<filter id="filter1_d_1154_146292" x="0.00057745" y="8.91685e-05" width="53.2488" height="53.2479" filterUnits="userSpaceOnUse" color-interpolation-filters="sRGB">
<feFlood flood-opacity="0" result="BackgroundImageFix"/>
<feColorMatrix in="SourceAlpha" type="matrix" values="0 0 0 0 0 0 0 0 0 0 0 0 0 0 0 0 0 0 127 0" result="hardAlpha"/>
<feOffset/>
<feGaussianBlur stdDeviation="3.80342"/>
<feComposite in2="hardAlpha" operator="out"/>
<feColorMatrix type="matrix" values="0 0 0 0 0 0 0 0 0 0 0 0 0 0 0 0 0 0 0.2 0"/>
<feBlend mode="normal" in2="BackgroundImageFix" result="effect1_dropShadow_1154_146292"/>
<feBlend mode="normal" in="SourceGraphic" in2="effect1_dropShadow_1154_146292" result="shape"/>
</filter>
<filter id="filter2_d_1154_146292" x="12.1712" y="12.1712" width="28.9057" height="28.9062" filterUnits="userSpaceOnUse" color-interpolation-filters="sRGB">
<feFlood flood-opacity="0" result="BackgroundImageFix"/>
<feColorMatrix in="SourceAlpha" type="matrix" values="0 0 0 0 0 0 0 0 0 0 0 0 0 0 0 0 0 0 127 0" result="hardAlpha"/>
<feOffset/>
<feGaussianBlur stdDeviation="1.90171"/>
<feComposite in2="hardAlpha" operator="out"/>
<feColorMatrix type="matrix" values="0 0 0 0 0.172549 0 0 0 0 0.443137 0 0 0 0 1 0 0 0 0.7 0"/>
<feBlend mode="normal" in2="BackgroundImageFix" result="effect1_dropShadow_1154_146292"/>
<feBlend mode="normal" in="SourceGraphic" in2="effect1_dropShadow_1154_146292" result="shape"/>
</filter>
<linearGradient id="paint0_linear_1154_146292" x1="30.0476" y1="-122.09" x2="-97.1794" y2="-69.8997" gradientUnits="userSpaceOnUse">
<stop offset="0.116616" stop-color="#0542FE"/>
<stop offset="0.199455" stop-color="#0542FE"/>
<stop offset="0.312628" stop-color="#245AFF"/>
<stop offset="0.379688" stop-color="#3791FF"/>
<stop offset="0.460275" stop-color="#37BBFF"/>
<stop offset="0.637524" stop-color="#64F57B"/>
<stop offset="1" stop-color="#64F57B"/>
</linearGradient>
<clipPath id="clip0_1154_146292">
<rect x="7.60742" y="7.60693" width="38.0342" height="38.0342" rx="4.56411" fill="white"/>
</clipPath>
</defs>
</svg>
