<svg width="22" height="22" viewBox="0 0 22 22" fill="none" xmlns="http://www.w3.org/2000/svg">
<circle cx="10.6521" cy="10.6522" r="10.2174" fill="white" stroke="#3F3F3F" stroke-width="0.869565"/>
<path d="M7.25995 15.9131H4.95186V7.03231H4.89072L2.35336 8.62199V6.58904L5.08943 4.84651H7.25995V15.9131ZM13.7216 16.0659C12.9624 16.0659 12.2771 15.9258 11.6657 15.6456C11.0594 15.3654 10.5805 14.9781 10.2289 14.4839C9.88244 13.9846 9.70156 13.4216 9.68628 12.7949H11.9179C11.9332 13.0802 12.0224 13.3324 12.1854 13.5515C12.3485 13.7706 12.565 13.9413 12.8351 14.0636C13.1051 14.1858 13.4006 14.247 13.7216 14.247C14.0986 14.247 14.4349 14.1655 14.7304 14.0024C15.031 13.8343 15.2629 13.6025 15.4259 13.3069C15.5941 13.0063 15.6781 12.6675 15.6781 12.2905C15.6781 11.9032 15.5941 11.5593 15.4259 11.2587C15.2578 10.9581 15.0209 10.7237 14.7152 10.5556C14.4145 10.3823 14.0732 10.2932 13.691 10.2881C12.8605 10.2881 12.2797 10.5989 11.9485 11.2205H9.8697L10.4658 4.84651H17.2831V6.7266H12.3612L12.0555 9.52382H12.1472C12.3561 9.24359 12.6567 9.0194 13.049 8.85127C13.4465 8.67803 13.8846 8.59141 14.3636 8.59141C15.0361 8.59141 15.6399 8.74682 16.1749 9.05762C16.715 9.36842 17.1379 9.8015 17.4436 10.3569C17.7544 10.9071 17.9098 11.5313 17.9098 12.2293C17.9098 12.9681 17.734 13.6279 17.3824 14.2088C17.0309 14.7896 16.5367 15.2456 15.8998 15.5768C15.268 15.9029 14.5419 16.0659 13.7216 16.0659Z" fill="#3F3F3F"/>
</svg>
