<svg width="22" height="22" viewBox="0 0 22 22" fill="none" xmlns="http://www.w3.org/2000/svg">
<circle cx="10.6521" cy="10.6522" r="10.2174" fill="white" stroke="#3F3F3F" stroke-width="0.869565"/>
<path d="M6.63766 15.9131H4.32958V7.03231H4.26844L1.73107 8.62199V6.58904L4.46715 4.84651H6.63766V15.9131ZM13.3439 16.0659C12.5185 16.0659 11.7695 15.8902 11.0969 15.5386C10.4244 15.1819 9.88176 14.6011 9.46906 13.7961C9.05635 12.9859 8.85 11.9338 8.85 10.6396C8.85 9.41173 9.03597 8.35194 9.40791 7.4603C9.77986 6.56356 10.3097 5.87827 10.9976 5.40442C11.6854 4.93058 12.4879 4.69366 13.405 4.69366C14.1285 4.69366 14.7782 4.83377 15.3539 5.114C15.9297 5.39423 16.3908 5.77891 16.7372 6.26805C17.0888 6.75718 17.3028 7.30745 17.3792 7.91886H15.117C15.0253 7.52654 14.8266 7.22083 14.5209 7.00174C14.2202 6.77756 13.8483 6.66546 13.405 6.66546C12.6662 6.66546 12.0981 6.97881 11.7007 7.60551C11.3084 8.22711 11.1071 9.09074 11.0969 10.1964H11.2039C11.4536 9.71234 11.8332 9.33275 12.3427 9.05762C12.8522 8.77739 13.4152 8.63727 14.0317 8.63727C14.689 8.63727 15.28 8.79267 15.8048 9.10347C16.3347 9.40918 16.75 9.83462 17.0506 10.3798C17.3512 10.9199 17.5015 11.5313 17.5015 12.214C17.5015 12.9528 17.3257 13.6152 16.9742 14.2011C16.6277 14.782 16.1386 15.238 15.5068 15.5692C14.875 15.9003 14.154 16.0659 13.3439 16.0659ZM13.298 14.247C13.67 14.247 14.0063 14.1604 14.3069 13.9871C14.6075 13.8139 14.8418 13.577 15.01 13.2764C15.1832 12.9758 15.2698 12.642 15.2698 12.2752C15.2698 11.9134 15.1858 11.5822 15.0176 11.2816C14.8546 10.981 14.6253 10.7441 14.3298 10.5709C14.0343 10.3925 13.7005 10.3034 13.3286 10.3034C12.9567 10.3034 12.6178 10.3925 12.3121 10.5709C12.0115 10.7441 11.772 10.9836 11.5937 11.2893C11.4205 11.5899 11.3313 11.9185 11.3262 12.2752C11.3313 12.6369 11.4179 12.9681 11.5861 13.2687C11.7593 13.5693 11.9962 13.8088 12.2968 13.9871C12.5975 14.1604 12.9312 14.247 13.298 14.247Z" fill="#3F3F3F"/>
</svg>
