<svg width="22" height="22" viewBox="0 0 22 22" fill="none" xmlns="http://www.w3.org/2000/svg">
<circle cx="10.6521" cy="10.6522" r="10.2174" fill="white" stroke="#3F3F3F" stroke-width="0.869565"/>
<path d="M10.2819 4.69366C11.1022 4.69366 11.8486 4.87199 12.5212 5.22864C13.1988 5.58021 13.744 6.1585 14.1567 6.96353C14.5694 7.76346 14.7758 8.80541 14.7758 10.0894C14.7809 11.3275 14.5974 12.3975 14.2255 13.2993C13.8535 14.196 13.3237 14.8813 12.6358 15.3552C11.9531 15.829 11.148 16.0659 10.2207 16.0659C9.49213 16.0659 8.83996 15.9258 8.26421 15.6456C7.69356 15.3654 7.23245 14.9781 6.88089 14.4839C6.53442 13.9846 6.32298 13.4216 6.24655 12.7949H8.50878C8.60049 13.2025 8.79665 13.5209 9.09726 13.7502C9.40297 13.9795 9.77746 14.0941 10.2207 14.0941C10.9697 14.0941 11.5404 13.7808 11.9327 13.1541C12.3301 12.5274 12.5288 11.6536 12.5288 10.5327H12.4371C12.1773 11.0218 11.7926 11.4039 11.2831 11.6791C10.7786 11.9542 10.2156 12.0918 9.59404 12.0918C8.94186 12.0918 8.35083 11.9389 7.82094 11.6332C7.29614 11.3275 6.88344 10.9046 6.58283 10.3645C6.28222 9.81934 6.12936 9.20792 6.12427 8.53027C6.12427 7.79658 6.2975 7.13931 6.64397 6.55847C6.99044 5.97253 7.47957 5.51652 8.11136 5.19043C8.74315 4.85925 9.46666 4.69366 10.2819 4.69366ZM10.3277 6.49733C9.96088 6.49733 9.62715 6.58394 9.32654 6.75718C9.03103 6.93041 8.79665 7.16478 8.62342 7.4603C8.45528 7.75582 8.37121 8.0819 8.37121 8.43856C8.37121 8.80541 8.45273 9.13914 8.61578 9.43975C8.78391 9.74036 9.01574 9.97728 9.31126 10.1505C9.60677 10.3238 9.9405 10.4104 10.3124 10.4104C10.6793 10.4104 11.013 10.3238 11.3136 10.1505C11.6193 9.97219 11.8588 9.73272 12.032 9.43211C12.2104 9.1315 12.2995 8.80541 12.2995 8.45385C12.2944 8.10228 12.2053 7.77874 12.032 7.48323C11.8588 7.18262 11.6219 6.94315 11.3213 6.76482C11.0258 6.58649 10.6946 6.49733 10.3277 6.49733Z" fill="#3F3F3F"/>
</svg>
